<?xml version="1.0" encoding="utf-8"?>
<!-- Generator: Adobe Illustrator 22.0.0, SVG Export Plug-In . SVG Version: 6.00 Build 0)  -->
<svg version="1.1" id="Layer_1" xmlns="http://www.w3.org/2000/svg" xmlns:xlink="http://www.w3.org/1999/xlink" x="0px" y="0px"
	 viewBox="0 0 300 300" style="enable-background:new 0 0 300 300;" xml:space="preserve">
<style type="text/css">
	.st0{fill:none;stroke:#7E7E7E;stroke-width:1.2736;stroke-linecap:round;stroke-linejoin:round;stroke-miterlimit:10;}
	.st1{fill:none;stroke:#7E7E7E;stroke-miterlimit:10;}
	.st2{fill:none;stroke:#7E7E7E;stroke-width:0.8764;stroke-linecap:round;stroke-linejoin:round;stroke-miterlimit:10;}
	.st3{fill:#F1D87C;}
	.st4{fill:#FFFFFF;}
	.st5{fill:#313B56;}
	.st6{fill:#ECC460;}
	.st7{fill:#68B4C3;}
	.st8{fill:#DF772C;}
	.st9{fill:#C75728;}
	.st10{fill:#548EA6;}
	.st11{fill:#E8A333;}
</style>
<g>
	<g>
		<path class="st0" d="M217,215.5"/>
		<path class="st0" d="M211.8,210.2"/>
		<path class="st0" d="M217,205"/>
		<path class="st0" d="M217,205c0,2.9-2.3,5.2-5.2,5.2c2.9,0,5.2,2.3,5.2,5.2c0-2.9,2.3-5.2,5.2-5.2C219.3,210.2,217,207.9,217,205z
			"/>
		<path class="st0" d="M222.2,210.2"/>
	</g>
	<polygon class="st1" points="169.7,78.9 178.3,63.6 188.4,68.8 197.2,52.1 209.4,58.2 214.1,48.2 210.5,48 218,41.3 217.6,51.4 
		215.2,48.7 209.9,59.7 197.6,53.6 188.9,70.4 178.8,65.1 170.7,79.5 	"/>
	<g>
		<path class="st0" d="M208.7,259.5c0.4-2.4,0.8-5,1.1-6.7"/>
		<path class="st0" d="M213.2,253.3c-0.3,1.7-0.7,4.3-1.1,6.7"/>
		<polygon class="st0" points="204.7,262.9 208.7,259.7 212,260.2 214.6,264.5 		"/>
		<g>
			<path class="st0" d="M225,234.4c3.2,0.5,8.8,1.5,8.8,1.5l-0.3,1.2c0,0.2-1,3.8-3.2,7.3c-3,4.8-6.8,7-11.1,6.4 M221.5,248.5
				c5.4-0.8,8.4-7.9,9.4-10.8c0,0-4.3-0.7-6.1-1"/>
		</g>
		<g>
			<path class="st0" d="M204.3,233.3c-1.8-0.3-6.2-1-6.2-1c0,3.1,0.6,11,5.7,13.4 M204.4,248.4c-4-1-6.7-4.3-8-9.5
				c-1-4-0.7-7.8-0.7-8l0.1-1.3c0,0,5.4,0.9,8.6,1.4"/>
		</g>
		<path class="st0" d="M205.3,228.2c-0.6,3.6-2,12.2-1.7,15.1c0.6,5.8,3.7,8.8,7.6,9.5l0.4,0.1l0.4,0.1c3.9,0.6,7.8-1.2,10.2-6.5
			c1.2-2.7,2.8-11.6,3.3-15.1"/>
		<path class="st0" d="M214.8,264.5l-10-1.7c-1.5-0.2-2.8,0.7-3.1,2.2l15.3,2.5C217.2,266.2,216.2,264.8,214.8,264.5z"/>
		
			<rect x="203.9" y="261.8" transform="matrix(0.1634 -0.9866 0.9866 0.1634 -92.7992 432.3895)" class="st0" width="9.3" height="18.2"/>
		
			<rect x="206.1" y="266.2" transform="matrix(0.1634 -0.9866 0.9866 0.1634 -99.4693 436.3239)" class="st0" width="2.8" height="21.2"/>
		<path class="st0" d="M227.5,229.9c-0.1,0.8-0.9,1.4-1.8,1.3l-20.2-3.3c-0.8-0.1-1.4-0.9-1.3-1.8l0,0c0.1-0.8,0.9-1.4,1.8-1.3
			l20.2,3.3C227.1,228.2,227.7,229,227.5,229.9L227.5,229.9z"/>
	</g>
	<g>
		<path class="st0" d="M28.1,16.2l-17.7,31l54.2,31.1L28.1,16.2z M19.2,44.8l9-15.8l18.7,31.7L19.2,44.8z"/>
		<line class="st0" x1="17" y1="47.1" x2="15.4" y2="49.7"/>
		<line class="st0" x1="21.6" y1="49.6" x2="20" y2="52.3"/>
		<line class="st0" x1="26.1" y1="52.2" x2="24.5" y2="54.8"/>
		<line class="st0" x1="30.7" y1="54.7" x2="29.2" y2="57.4"/>
		<line class="st0" x1="35.5" y1="57.7" x2="33.9" y2="60.4"/>
		<line class="st0" x1="40.1" y1="60.3" x2="38.5" y2="62.9"/>
		<line class="st0" x1="44.6" y1="62.8" x2="43" y2="65.5"/>
		<line class="st0" x1="49.2" y1="65.4" x2="47.7" y2="68"/>
		<line class="st0" x1="54.2" y1="68.3" x2="52.6" y2="70.9"/>
	</g>
	<g>
		<g>
			<path class="st1" d="M67.2,182.9l-0.3,14.8c0,0-1.7-0.4-3.2,0.7c-2.1,1.6-1.5,3.6-0.1,4.2c2,0.8,4.6-0.6,4.6-3.1
				c0.1-3.6,0.3-14.5,0.3-14.5l9.9-1.6l-0.1,12.2c0,0-1.5-0.4-3.2,0.5c-2.7,1.5-1.5,5,1,4.7c1.2-0.2,2.8-1.2,3.1-3.3
				c0.6-4.2,0.5-16.8,0.5-16.8L67.2,182.9z"/>
		</g>
	</g>
	<g>
		<g>
			<g>
				<path class="st0" d="M70.4,272.6c0-1.2,0.4-2.5,1.6-3l0.2-0.1c1.3-0.6,2.8,0.2,3.8,1.2"/>
				<path class="st0" d="M21.2,248.5c0.1-1.1,0.2-3.5,0.2-3.5s3.9-1.2,6-2.8c6.5-4.9,12.8-10.7,21.2-11.8c3.5-0.4,5.4,1.1,6.3,2.2"
					/>
				<path class="st0" d="M88.9,217.2c-0.9-0.7-2.7-2-2.7-2s-3.2,3.1-5.8,3.7c-7.9,1.9-16.9,1.6-23,7.3c-2.4,2.3-2.6,4.6-2.4,6"/>
				<path class="st0" d="M91.8,218l-1.6-1.3L60.8,233c-1.5-1.5-5-0.7-5.8-0.3l-0.2,0.1c-1.1,0.6-3.1,2.3-2.9,4.4L20,249l-0.1,2"/>
				<path class="st0" d="M54.1,238.5c0-1.2,0.7-2.4,1.8-2.9l0.2-0.1c1.3-0.6,2.8-0.2,3.8,0.8"/>
			</g>
			<polygon class="st0" points="76.4,271.3 105.8,254.2 91.8,218 60.1,236.2 			"/>
			<polygon class="st0" points="38.8,285 70.9,273.8 54.4,238.8 20,251.1 			"/>
		</g>
		<g>
			<polygon class="st0" points="68.4,242.4 70.7,247.3 93.5,234.5 91.1,229.4 			"/>
			<line class="st0" x1="72.5" y1="250.7" x2="95.3" y2="237.9"/>
			<line class="st0" x1="81.2" y1="253.2" x2="91.6" y2="247.1"/>
		</g>
	</g>
	<path class="st1" d="M135.2,28.1l-8.6-2.7c-0.4-0.1-0.9,0.1-1,0.5s0.1,0.9,0.5,1l0.7,0.2L118.4,54c-0.6,2,0.5,4.1,2.5,4.7
		c2,0.6,4.1-0.5,4.7-2.5l8.4-26.8l0.7,0.2c0.4,0.1,0.9-0.1,1-0.5C135.9,28.7,135.6,28.2,135.2,28.1z M127.9,44l-3.7,11.8
		c-0.4,1.2-1.7,1.9-2.9,1.5c-1.2-0.4-1.9-1.7-1.5-2.9l3.7-11.8l4.8-15.2l4.4,1.4L127.9,44z"/>
	<g>
		<path class="st0" d="M37.8,150.7l-11.6-5.6l0.3-0.7c0.3-0.6,0-1.4-0.6-1.6c-0.6-0.3-1.4,0-1.6,0.6l-3.4,7c-0.3,0.6,0,1.3,0.6,1.6
			s1.3,0,1.6-0.6l0.3-0.7l11.6,5.6c-0.7,4.6,1.6,9.4,6,11.5c5.4,2.6,11.9,0.3,14.5-5.1c2.6-5.4,0.3-11.9-5.1-14.5
			C46.1,146.1,41,147.2,37.8,150.7z"/>
		<path class="st0" d="M49,150.1c-1.7-1.7-4.8-0.9-5.7,1c-0.3,0.7-0.5,1.4-0.4,2.2c-0.8,0.1-1.5,0.5-1.9,1.3
			c-0.3,0.6-0.3,1.2-0.1,1.8c-0.6,0.3-1.2,0.8-1.5,1.5c-0.7,1.4-0.2,3.2,1.1,4c-1.3,1.2,0,3.3,1.2,3.9c0,0-1.1,1.8-0.5,2
			c5.4,2.6,11.9,0.3,14.5-5.1c2.6-5.4,0.3-11.9-5.1-14.5C50,147.9,49,150.1,49,150.1z"/>
	</g>
	<g>
		<g>
			<path class="st0" d="M161.4,28.9c0.6,2.7,2,5.2,4.2,7.3c6,5.8,15.5,5.7,21.3-0.3c0.2-0.2,0.4-0.4,0.6-0.7"/>
			<path class="st0" d="M190.2,30.4c1.9-5.4,0.7-11.6-3.7-15.9c-6-5.8-15.5-5.7-21.3,0.3c-2.5,2.6-3.9,5.8-4.2,9.1"/>
			<path class="st0" d="M163.6,16.8c-0.9,1.3-1.5,2.6-2,4c-2.7-0.1-4.4,0.2-4.5,0.8c-0.1,0.6,1.3,1.6,3.8,2.6
				c0.4,0.2,0.8,0.3,1.3,0.5c3.4,1.3,8.2,2.6,13.6,3.8c4.1,0.9,8,1.5,11.2,1.9c1.1,0.1,2.1,0.2,3,0.3c3.4,0.2,5.5,0,5.7-0.7
				s-1.7-1.8-4.8-3c0.2-1.5,0.1-3-0.2-4.5c9.1,3.2,14.9,6.8,14.4,9.5c-0.6,2.7-7.6,3.6-17.3,2.7c-0.8-0.1-1.6-0.2-2.4-0.3
				c-3.3-0.4-6.8-1-10.5-1.8c-4.8-1-9.2-2.3-13-3.6c-0.2-0.1-0.4-0.1-0.6-0.2c-8.6-3.1-14.1-6.6-13.6-9.2
				C148.3,17,154.7,16.1,163.6,16.8z"/>
		</g>
	</g>
	<g>
		<path class="st0" d="M242.9,204.2c-0.7-1.6-3.5-1.9-5-2.5c-1.1-0.4-2.7-0.9-4-1.7c-1.1,7.7,1.8,15.1,7.3,20
			c0.2-1.9-0.3-4.3-0.3-5.8C240.8,210.9,244.4,207.7,242.9,204.2z"/>
		<path class="st0" d="M277.4,206.6c-0.4,0.2-0.2,0.5-0.4,0.9c-0.4,0.7-0.5,1.6-0.9,2.3c-1.1,2-2.1,1.3-4.3,1.9
			c-2.3,0.6-2.2,2-1.4,3.9c0.8,1.7,1.1,3.3,1.3,5.2c0,0.2,0.1,0.6,0.2,1c5-3.5,8.6-8.7,9.7-14.9
			C280.2,206.6,278.1,206.2,277.4,206.6z"/>
		<g>
			<g>
				<path class="st0" d="M271.9,183.9c-2.4,0.5-4.7,0.8-5.3,0.9c-3.3,0.2-10-1-10.2,3.7c-0.1,1.9,1,3.8,0.7,5.7
					c-0.2,1.1-0.5,1.2-1.5,1.5s-2,0.3-3,0.4c-0.4,0-1.5,0-2.3,0.1c-0.4,0.1-0.8,0.1-0.9,0.3c-0.7,0.6-0.2,2.1,0.2,2.7
					c1,1.8,3.3,2.5,5.3,3.2c0.3,0.1,0.6,0.2,0.9,0.3c2.9,1,4.6,1.7,4.1,4.9c-0.1,0.4-0.1,0.8-0.2,1.2s-0.3,0.8-0.7,1.1
					c-0.8,0.7-2.1,0.4-2.9,1c-2.1,1.6-0.2,4.9,1.6,5.9c1.2,0.6,2.6,0.7,3.4,1.9c0.8,1.1,0.6,2.4,1,3.6c0.3,1.2,1.1,2.4,2.1,3.1
					c2.1-0.6,4.1-1.4,5.9-2.5c0.6-0.3,1.1-0.7,1.7-1.1c-0.1-0.4-0.1-0.8-0.2-1c-0.2-1.9-0.5-3.5-1.3-5.2c-0.8-1.9-0.9-3.3,1.4-3.9
					c2.2-0.6,3.2,0.1,4.3-1.9c0.4-0.7,0.6-1.6,0.9-2.3c0.2-0.3,0-0.6,0.4-0.9c0.7-0.4,2.7,0,4.2,0.3c0-0.1,0-0.1,0.1-0.2
					C283.3,197.6,279.2,188.9,271.9,183.9z"/>
				<path class="st0" d="M251.5,185c0.2-0.9-0.2-2.2-0.6-3c-0.2-0.4-0.4-0.7-0.6-1.1c-2.9,1-5.6,2.4-8,4.3c-1.7,1.4-3.3,3-4.5,4.8
					c1.3-0.5,2.8-0.6,4.1-1.3c0.7-0.4,1.5-0.7,2.3-0.9c0.5-0.2,1.1-0.3,1.6-0.4C247.8,187,251,187.3,251.5,185z"/>
			</g>
			<path class="st0" d="M261.9,180c-4-0.6-8-0.2-11.6,0.9c0.2,0.3,0.4,0.7,0.6,1.1c0.4,0.8,0.8,2.1,0.6,3c-0.6,2.3-3.8,2.1-5.7,2.4
				c-0.5,0.1-1.1,0.2-1.6,0.4c-0.8,0.2-1.7,0.5-2.3,0.9c-1.3,0.8-2.7,0.9-4.1,1.3c-1.9,2.7-3.3,5.8-3.9,9.2c0,0.3-0.1,0.5-0.1,0.8
				c1.2,0.8,2.9,1.3,4,1.7c1.6,0.6,4.4,0.9,5,2.5c1.5,3.5-2.1,6.7-2.1,10.1c0,1.5,0.5,3.9,0.3,5.8c3.4,3,7.7,5.2,12.6,5.9
				c3.6,0.6,7.2,0.3,10.5-0.6c-1-0.8-1.8-1.9-2.1-3.1c-0.3-1.2-0.2-2.5-1-3.6s-2.2-1.2-3.4-1.9c-1.8-1-3.7-4.4-1.6-5.9
				c0.8-0.6,2.1-0.3,2.9-1c0.4-0.3,0.6-0.7,0.7-1.1c0.1-0.4,0.2-0.8,0.2-1.2c0.5-3.2-1.2-3.9-4.1-4.9c-0.3-0.1-0.6-0.2-0.9-0.3
				c-2-0.7-4.3-1.4-5.3-3.2c-0.4-0.6-0.9-2.1-0.2-2.7c0.2-0.2,0.5-0.2,0.9-0.3c0.8-0.1,1.9-0.1,2.3-0.1c1-0.1,2-0.1,3-0.4
				c1-0.3,1.3-0.4,1.5-1.5c0.3-1.9-0.8-3.8-0.7-5.7c0.2-4.7,6.9-3.4,10.2-3.7c0.5,0,2.9-0.3,5.3-0.9
				C269.1,182,265.7,180.6,261.9,180z"/>
		</g>
	</g>
	<g>
		<path class="st0" d="M73.7,40.9c-8.4,5.1-11.1,16-6,24.4C72.3,73.1,82,76,90,72.4l2-1.2l2-1.2c6.9-5.5,8.8-15.3,4.1-23.1
			C93,38.6,82.1,35.9,73.7,40.9z M90.2,68.2c-6.7,4-15.4,1.9-19.4-4.8S68.9,48,75.6,44c6.7-4,15.4-1.9,19.4,4.8S96.9,64.2,90.2,68.2
			z"/>
		<path class="st0" d="M98.5,71.9l-0.7-1.2c-0.7-1.2-2.3-1.6-3.4-0.8L94,70l-2,1.2l-2,1.2l-0.4,0.2c-1.2,0.7-1.6,2.3-0.9,3.4
			l0.7,1.2c0.7,1.2,2.3,1.6,3.4,0.8c-1.2,0.7-1.6,2.3-0.9,3.4l9.5,15.7c0.7,1.2,2.3,1.6,3.4,0.8l2.4-1.4l2.4-1.4
			c1.2-0.7,1.6-2.3,0.8-3.4L100.9,76c-0.7-1.2-2.3-1.6-3.4-0.8C98.9,74.6,99.2,73.1,98.5,71.9z"/>
	</g>
	<g>
		<path class="st0" d="M220.9,64.6c-0.1,4.2-0.4,19.2-0.6,26.8"/>
		<path class="st0" d="M222.9,92.3c0.2-6.9,0.5-21.6,0.6-26.9"/>
		<path class="st0" d="M253.2,46.9c-5.8,2.4-21.2,9-26.1,11"/>
		<path class="st0" d="M227.9,60.4c4.8-2,20.5-8.7,26.3-11.1"/>
		<path class="st0" d="M219.5,59.3c-0.9,2.3,0.3,4.8,2.5,5.6c2.3,0.9,4.8-0.3,5.6-2.5c0.9-2.3-0.3-4.8-2.5-5.6
			C222.9,55.9,220.4,57.1,219.5,59.3z M221.8,60.2c0.4-1,1.5-1.5,2.5-1.1s1.5,1.5,1.1,2.5s-1.5,1.5-2.5,1.1
			C221.9,62.3,221.4,61.2,221.8,60.2z"/>
		<path class="st0" d="M211.4,94l0.8-2.1c0.7-1.8,2.6-2.6,4.4-2l10.9,4.2c1.8,0.7,2.6,2.6,2,4.4l-0.8,2.1L211.4,94z"/>
		<path class="st0" d="M257.5,50.5c-0.9-2-3.2-7.2-3.2-7.2l-2.2,1c0,0,2.3,5.2,3.2,7.3"/>
		<polygon class="st0" points="255.3,66.3 268.5,61 260.4,49.9 253.4,53 		"/>
	</g>
	<g>
		<polygon class="st0" points="285.5,156.2 283.8,152.6 278.6,153.3 281.6,159.8 		"/>
		<polygon class="st0" points="289.6,152.2 283.8,152.6 285.5,156.2 		"/>
		<polygon class="st0" points="259.5,165.1 259.5,165.1 260.5,167.1 261.6,169.3 281.6,159.8 280.6,157.6 279.6,155.5 279.6,155.5 
			278.6,153.3 258.5,162.9 		"/>
		<line class="st0" x1="279.7" y1="156.9" x2="260.5" y2="166.1"/>
	</g>
	<g>
		<path class="st0" d="M46.1,86.2c1.8-0.6,3-1,3-1c1.6-0.5,3.3,0.3,3.9,1.9l8.5,24.8c0.5,1.6-0.3,3.3-1.9,3.9l-28.4,9.7
			c-1.6,0.5-3.3-0.3-3.9-1.9l-8.5-24.8c-0.5-1.6,0.3-3.3,1.9-3.9c0,0,1.1-0.4,2.8-1"/>
		<path class="st0" d="M28,92.4c4.3-1.5,9.7-3.3,13.9-4.8"/>
		<g>
			<path class="st0" d="M28.3,94c0.4,1.1-0.2,2.4-1.3,2.7l0,0c-1.1,0.4-2.4-0.2-2.7-1.3L23,91.8c-0.4-1.1,0.2-2.4,1.3-2.7l0,0
				c1.1-0.4,2.4,0.2,2.7,1.3L28.3,94z"/>
			<path class="st0" d="M46.7,87.7c0.4,1.1-0.2,2.4-1.3,2.7l0,0c-1.1,0.4-2.4-0.2-2.7-1.3l-1.2-3.6c-0.4-1.1,0.2-2.4,1.3-2.7l0,0
				c1.1-0.4,2.4,0.2,2.7,1.3L46.7,87.7z"/>
		</g>
		<g>
			<path class="st1" d="M32.3,102.6c0.3-0.2,0.7-0.4,1-0.5s0.7-0.2,1.1-0.3l3.6,10.6c0.2,0.5,0.3,0.9,0.5,1.4c0.3-0.1,1-0.4,1.3-0.5
				l1.5-0.5c0.2,0.3,0.3,0.6,0.4,0.9c0.1,0.3,0.2,0.6,0.2,1l-8.1,2.8c-0.2-0.3-0.3-0.6-0.4-0.9c-0.1-0.3-0.2-0.6-0.2-1l2-0.7
				c0.3-0.1,0.9-0.3,1.2-0.4c-0.2-0.5-0.3-0.9-0.5-1.4l-1.7-4.9c-0.2-0.5-0.5-1.7-0.8-2.6c-0.5,1.3-1.4,2.5-2.3,3.4
				c-0.6-0.1-1.1-0.5-1.4-1C31.4,106.1,32.2,104.2,32.3,102.6z"/>
			<path class="st1" d="M48.3,98.2c0.2,0.6,0,1.1-0.6,1.3l-3.7,1.3l-0.8,0.3l0.4,1.1l0.4,1.5l0.1,0.6c0.5-0.4,1.1-0.8,1.8-1
				c2.6-0.9,4.9,0.2,5.9,3c1.2,3.5-0.7,5.9-3.2,6.7c-1.7,0.6-3.3,0.5-4.5,0c-0.1-0.5,0.1-1.3,0.4-1.8c1.1,0.3,2.1,0.4,3.3,0
				c1.4-0.5,2.4-1.9,1.7-4c-0.7-2.2-2.4-2.3-3.6-1.9c-0.8,0.3-1.6,0.9-2.1,1.7c-0.4,0.1-1-0.1-1.3-0.4l-1.9-6.5l0.1-0.2l7.3-2.5
				C48,97.6,48.2,98,48.3,98.2z"/>
		</g>
	</g>
	<g>
		<path class="st2" d="M261,248.5c0.5,1.3-0.1,2.7-1.4,3.3l-5.6,2.3c-1.3,0.5-2.7-0.1-3.3-1.4l-2.3-5.6c-0.5-1.3,0.1-2.7,1.4-3.3
			l5.6-2.3c1.3-0.5,2.7,0.1,3.3,1.4L261,248.5z"/>
		<path class="st1" d="M253,245.3c0.2-0.1,0.4-0.2,0.6-0.3c0.2-0.1,0.4-0.2,0.6-0.2l0.6,1.6c0.1,0.2,0.2,0.4,0.2,0.6
			c0.2-0.1,0.4-0.2,0.6-0.3l1.4-0.6c0.1,0.2,0.2,0.3,0.3,0.5c0.1,0.2,0.2,0.4,0.2,0.6l-1.4,0.6c-0.2,0.1-0.4,0.2-0.6,0.2
			c0.1,0.2,0.2,0.4,0.3,0.6l0.6,1.6c-0.2,0.1-0.4,0.2-0.6,0.3c-0.2,0.1-0.4,0.2-0.6,0.2l-0.6-1.6c-0.1-0.2-0.2-0.4-0.2-0.6
			c-0.2,0.1-0.4,0.2-0.6,0.3l-1.4,0.6c-0.1-0.1-0.2-0.3-0.3-0.5s-0.1-0.4-0.2-0.6l1.4-0.6c0.2-0.1,0.4-0.2,0.6-0.2
			c-0.1-0.2-0.2-0.4-0.3-0.6L253,245.3z"/>
		<path class="st2" d="M273.7,243.2c0.5,1.3-0.1,2.7-1.4,3.3l-5.6,2.3c-1.3,0.5-2.7-0.1-3.3-1.4l-2.3-5.6c-0.5-1.3,0.1-2.7,1.4-3.3
			l5.6-2.3c1.3-0.5,2.7,0.1,3.3,1.4L273.7,243.2z"/>
		<path class="st1" d="M266.1,243.8c-0.1-0.2-0.2-0.4-0.3-0.5c-0.1-0.2-0.1-0.4-0.2-0.6l3.1-1.3c0.1,0.2,0.2,0.4,0.3,0.5
			c0.1,0.2,0.1,0.4,0.2,0.6L266.1,243.8z"/>
		<path class="st2" d="M266,260.7c0.5,1.3-0.1,2.7-1.4,3.3l-5.6,2.3c-1.3,0.5-2.7-0.1-3.3-1.4l-2.3-5.6c-0.5-1.3,0.1-2.7,1.4-3.3
			l5.6-2.3c1.3-0.5,2.7,0.1,3.3,1.4L266,260.7z"/>
		<path class="st2" d="M278.8,255.5c0.5,1.3-0.1,2.7-1.4,3.3l-5.6,2.3c-1.3,0.5-2.7-0.1-3.3-1.4l-2.3-5.6c-0.5-1.3,0.1-2.7,1.4-3.3
			l5.6-2.3c1.3-0.5,2.7,0.1,3.3,1.4L278.8,255.5z"/>
		<g>
			<path class="st1" d="M271.9,257.9c-0.2,0-0.4-0.1-0.6-0.1c-0.2-0.1-0.4-0.2-0.5-0.3l0.7-1.8c0.1-0.2,0.1-0.4,0.2-0.5l-0.5-0.2
				l-1.8-0.7c0-0.2,0-0.4,0.1-0.6c0.1-0.2,0.2-0.4,0.3-0.5l1.8,0.7c0.2,0.1,0.4,0.2,0.5,0.3c0.1-0.2,0.2-0.4,0.2-0.6l0.7-1.8
				c0.2,0,0.4,0,0.6,0.1s0.4,0.2,0.5,0.4l-0.7,1.8c-0.1,0.2-0.2,0.4-0.2,0.6c0.2,0.1,0.4,0.1,0.6,0.2l1.8,0.7c0,0.2,0,0.4-0.1,0.6
				c-0.1,0.2-0.2,0.4-0.4,0.5l-1.8-0.7l-0.5-0.2l-0.2,0.5L271.9,257.9z"/>
		</g>
		<g>
			<path class="st1" d="M257.4,261.7c-0.1-0.1-0.2-0.4-0.3-0.5c-0.1-0.2-0.1-0.4-0.2-0.6l5.3-2.2c0.1,0.2,0.2,0.4,0.3,0.5
				c0.1,0.2,0.1,0.4,0.2,0.6L257.4,261.7z M258,257.5c0.1-0.2,0.4-0.3,0.6-0.4s0.5-0.2,0.7-0.1c0.1,0.1,0.3,0.3,0.3,0.5
				c0.1,0.2,0.1,0.4,0.1,0.6c-0.1,0.1-0.4,0.3-0.6,0.4s-0.5,0.2-0.7,0.1c-0.1-0.1-0.3-0.3-0.3-0.5C258,257.9,258,257.7,258,257.5z
				 M259.8,262.1c0.1-0.2,0.4-0.3,0.6-0.4s0.5-0.2,0.7-0.1c0.1,0.1,0.3,0.3,0.3,0.5c0.1,0.2,0.1,0.4,0.1,0.6
				c-0.1,0.1-0.4,0.3-0.6,0.4s-0.5,0.2-0.7,0.1c-0.1-0.1-0.3-0.3-0.3-0.5S259.8,262.2,259.8,262.1z"/>
		</g>
	</g>
	<g>
		<path class="st0" d="M96.1,134.5c2.4,8.9-2.8,18.1-11.7,20.6c-8.9,2.4-18.1-2.8-20.6-11.7c-2.4-8.9,2.8-18.1,11.7-20.6
			C84.4,120.4,93.6,125.6,96.1,134.5z"/>
		<g>
			<path class="st1" d="M69.7,141.8c0.1,0.5-0.2,1.1-0.7,1.2c-0.5,0.1-1.1-0.2-1.2-0.7s0.2-1.1,0.7-1.2
				C69,141,69.5,141.3,69.7,141.8z"/>
			<path class="st1" d="M92.1,135.6c0.1,0.5-0.2,1.1-0.7,1.2c-0.5,0.1-1.1-0.2-1.2-0.7s0.2-1.1,0.7-1.2
				C91.4,134.8,91.9,135.1,92.1,135.6z"/>
		</g>
		<g>
			<path class="st1" d="M77.1,128.7c-0.5,0.1-1.1-0.2-1.2-0.7s0.2-1.1,0.7-1.2s1.1,0.2,1.2,0.7C77.9,128,77.6,128.5,77.1,128.7z"/>
			<path class="st1" d="M83.3,151.1c-0.5,0.1-1.1-0.2-1.2-0.7s0.2-1.1,0.7-1.2c0.5-0.1,1.1,0.2,1.2,0.7
				C84.1,150.4,83.8,151,83.3,151.1z"/>
		</g>
		<path class="st1" d="M87,129.2c0-0.2-0.2-0.4-0.4-0.5c-0.1-0.1-0.3-0.1-0.4-0.1c-0.3,0-0.5,0.1-0.7,0.4l-5.8,9.3l-6.4-2.3
			c-0.1,0-0.2,0-0.3,0c-0.3,0-0.7,0.2-0.8,0.5c-0.1,0.2-0.1,0.4,0,0.6c0.1,0.2,0.3,0.3,0.5,0.4l6.9,2.5c0.1,0,0.2,0.1,0.3,0.1H80
			l0,0h0.1c0,0,0.1,0,0.1-0.1l0,0c0.1-0.1,0.3-0.2,0.3-0.4l6.1-9.8C87,129.6,87.1,129.4,87,129.2z"/>
	</g>
	<g>
		<g>
			<path class="st0" d="M13.8,212.6l0.6,1.4c0.4,0.9,1.5,1.4,2.4,1l1-0.4c0.6,0.7,1.2,1.4,1.9,1.9l-0.4,1c-0.4,1,0.1,2,1,2.4
				l1.4,0.6c1,0.4,2-0.1,2.4-1l0.4-1c0.9,0.1,1.8,0.1,2.7,0l0.4,1c0.4,0.9,1.5,1.4,2.4,1l1.4-0.6c0.9-0.4,1.4-1.5,1-2.4l-0.4-1
				c0.7-0.6,1.4-1.2,1.9-1.9l1,0.4c1,0.4,2-0.1,2.4-1l0.6-1.4c0.4-1-0.1-2-1-2.4l-1-0.4c0.1-0.9,0.1-1.8,0-2.7l1-0.4
				c0.9-0.4,1.4-1.5,1-2.4l-0.6-1.4c-0.4-0.9-1.5-1.4-2.4-1l-1,0.4c-0.6-0.7-1.2-1.4-1.9-1.9l0.4-1c0.4-1-0.1-2-1-2.4l-1.4-0.6
				c-1-0.4-2,0.1-2.4,1l-0.4,1c-0.9-0.1-1.8-0.1-2.7,0l-0.4-1c-0.4-0.9-1.5-1.4-2.4-1l-1.4,0.6c-0.9,0.4-1.4,1.5-1,2.4l0.4,1
				c-0.7,0.6-1.4,1.2-1.9,1.9l-1-0.4c-1-0.4-2,0.1-2.4,1l-0.6,1.4c-0.4,1,0.1,2,1,2.4l1,0.4c-0.1,0.9-0.1,1.8,0,2.7l-1,0.4
				C13.9,210.5,13.5,211.6,13.8,212.6z M19.5,211c-1.5-3.5,0.2-7.6,3.7-9.1s7.6,0.2,9.1,3.7c1.5,3.5-0.2,7.6-3.7,9.1
				S21,214.6,19.5,211z"/>
			<path class="st0" d="M35.9,189.6v1.2c0,0.8,0.6,1.5,1.4,1.5h0.8c0.2,0.7,0.4,1.4,0.8,2l-0.6,0.6c-0.6,0.6-0.6,1.5-0.1,2.1
				l0.8,0.9c0.6,0.6,1.5,0.6,2.1,0.1l0.6-0.6c0.6,0.4,1.3,0.7,2,0.9v0.8c0,0.8,0.6,1.5,1.4,1.5h1.2c0.8,0,1.5-0.6,1.5-1.4v-0.8
				c0.7-0.2,1.4-0.4,2-0.8l0.6,0.6c0.6,0.6,1.5,0.6,2.1,0.1l0.9-0.8c0.6-0.6,0.6-1.5,0.1-2.1l-0.6-0.6c0.4-0.6,0.7-1.3,0.9-2h0.8
				c0.8,0,1.5-0.6,1.5-1.4v-1.2c0-0.8-0.6-1.5-1.4-1.5h-0.8c-0.2-0.7-0.4-1.4-0.8-2l0.6-0.6c0.6-0.6,0.6-1.5,0.1-2.1l-0.8-1
				c-0.6-0.6-1.5-0.6-2.1-0.1l-0.6,0.6c-0.6-0.4-1.3-0.7-2-0.9v-0.8c0-0.8-0.6-1.5-1.4-1.5h-1.2c-0.8,0-1.5,0.6-1.5,1.4v0.8
				c-0.7,0.2-1.4,0.4-2,0.8l-0.6-0.6c-0.6-0.6-1.5-0.6-2.1-0.1l-0.9,0.8c-0.6,0.6-0.6,1.5-0.1,2.1l0.6,0.6c-0.4,0.6-0.7,1.3-0.9,2
				h-0.8C36.6,188.1,35.9,188.8,35.9,189.6z M40.5,190.3c0.1-3,2.6-5.5,5.6-5.4s5.5,2.6,5.4,5.6s-2.6,5.5-5.6,5.4
				C42.9,195.9,40.5,193.3,40.5,190.3z"/>
		</g>
	</g>
	<g>
		<path class="st0" d="M110.8,33.3c0,0-0.2-1.6,0.1-2.7c0.7-2.2,5-5.3,4.9-9.5s-2.7-11-11-9.7c-7.8,1.2-9.7,8.4-8.2,12.4
			c1.8,5,6,4.9,7.8,7.3c0.3,0.4,0.9,3.1,0.9,3.1L110.8,33.3z"/>
		<path class="st0" d="M112.1,34.4c0.1,0.7-0.4,1.4-1.1,1.5l-5.5,0.8c-0.7,0.1-1.4-0.4-1.5-1.1l0,0c-0.1-0.7,0.4-1.4,1.1-1.5
			l5.5-0.8C111.4,33.2,112,33.7,112.1,34.4L112.1,34.4z"/>
		<path class="st0" d="M112.5,37c0.1,0.7-0.4,1.4-1.1,1.5l-5.5,0.8c-0.7,0.1-1.4-0.4-1.5-1.1l0,0c-0.1-0.7,0.4-1.4,1.1-1.5l5.5-0.8
			C111.8,35.8,112.4,36.3,112.5,37L112.5,37z"/>
		<path class="st0" d="M109,41c1.4-0.2,2.5-1.3,2.3-2.5l-5.2,0.8C106.3,40.5,107.6,41.2,109,41z"/>
		<polyline class="st0" points="107.4,33.5 101.9,20.5 105,21.8 105.8,18.7 107.3,21.3 110,18.9 108.7,33.5 		"/>
	</g>
	<g>
		<path class="st0" d="M249.6,81.1h21.7c2.1,0,3.9,1.7,3.9,3.9v14c0,2.1-1.7,3.9-3.9,3.9h-13.4l-6.4,6.4v-6.4h-1.9
			c-2.1,0-3.9-1.7-3.9-3.9V85C245.7,82.8,247.4,81.1,249.6,81.1z"/>
		<g>
			<path class="st0" d="M265.8,92.2c0,1.3,1.1,2.4,2.4,2.4s2.4-1.1,2.4-2.4s-1.1-2.4-2.4-2.4C266.9,89.8,265.8,90.9,265.8,92.2z"/>
			<path class="st0" d="M258,92.2c0,1.3,1.1,2.4,2.4,2.4s2.4-1.1,2.4-2.4s-1.1-2.4-2.4-2.4C259.1,89.8,258,90.9,258,92.2z"/>
			<path class="st0" d="M250.2,92.2c0,1.3,1.1,2.4,2.4,2.4c1.3,0,2.4-1.1,2.4-2.4s-1.1-2.4-2.4-2.4
				C251.3,89.8,250.2,90.9,250.2,92.2z"/>
		</g>
	</g>
	<polygon class="st0" points="234.3,12.5 239.6,20.6 248.6,19.2 243.2,27.2 246.2,35.8 237.5,32.9 230.2,38.4 230.3,29.2 
		222.7,23.3 231.7,21.9 	"/>
	<polygon class="st0" points="134.9,258.3 129.9,266.7 135.1,274.2 125.6,272.8 119.1,279.2 117.9,270.1 109.8,265.9 118.1,262 
		120.1,252.6 125.3,260.1 	"/>
	<polygon class="st0" points="278.6,121.3 272.1,128.5 275.6,136.8 266.6,133.6 258.9,138.5 259.6,129.4 252.5,123.6 261.4,121.5 
		265.4,112.7 268.9,121.1 	"/>
	<g>
		<path class="st0" d="M185.5,266c0.8-0.8,2.2-0.8,3,0.1c0.8,0.8,0.8,2.2-0.1,3c-0.8,0.8-2.2,0.8-3-0.1
			C184.6,268.1,184.6,266.8,185.5,266z"/>
		<path class="st0" d="M178.4,272.8c0.8-0.8,2.2-0.8,3,0.1c0.8,0.8,0.8,2.2-0.1,3c-0.8,0.8-2.2,0.8-3-0.1
			C177.6,274.9,177.6,273.6,178.4,272.8z"/>
		<path class="st0" d="M164.6,286c0.8-0.8,2.2-0.8,3,0.1c0.8,0.8,0.8,2.2-0.1,3c-0.8,0.8-2.2,0.8-3-0.1
			C163.8,288.2,163.8,286.9,164.6,286z"/>
		<path class="st0" d="M173.8,253.8c0.8-0.8,2.2-0.8,3,0.1c0.8,0.8,0.8,2.2-0.1,3c-0.8,0.8-2.2,0.8-3-0.1
			C172.9,256,172.9,254.6,173.8,253.8z"/>
		<path class="st0" d="M183.2,256.2c0.8-0.8,2.2-0.8,3,0.1c0.8,0.8,0.8,2.2-0.1,3c-0.8,0.8-2.2,0.8-3-0.1
			C182.3,258.4,182.3,257.1,183.2,256.2z"/>
		<path class="st0" d="M168.6,270.3c0.8-0.8,2.2-0.8,3,0.1c0.8,0.8,0.8,2.2-0.1,3c-0.8,0.8-2.2,0.8-3-0.1
			C167.7,272.5,167.7,271.1,168.6,270.3z"/>
		<path class="st0" d="M161.7,276.9c0.8-0.8,2.2-0.8,3,0.1c0.8,0.8,0.8,2.2-0.1,3c-0.8,0.8-2.2,0.8-3-0.1
			C160.9,279,160.9,277.7,161.7,276.9z"/>
		<path class="st0" d="M166.7,260.6c0.8-0.8,2.2-0.8,3,0.1c0.8,0.8,0.8,2.2-0.1,3c-0.8,0.8-2.2,0.8-3-0.1
			C165.8,262.8,165.9,261.4,166.7,260.6z"/>
		<path class="st0" d="M152.9,273.9c0.8-0.8,2.2-0.8,3,0.1c0.8,0.8,0.8,2.2-0.1,3c-0.8,0.8-2.2,0.8-3-0.1
			C152.1,276,152.1,274.7,152.9,273.9z"/>
		<path class="st0" d="M161,277.7c-2-0.6-4.6-1.4-4.6-1.4"/>
		<path class="st0" d="M165.5,285.5c0,0-0.9-2.9-1.6-4.9"/>
		<path class="st0" d="M168.7,264.2c0.4,1.7,1,3.9,1.4,5.5"/>
		<path class="st0" d="M173.7,256.8c-1.2,1.1-2.6,2.5-3.8,3.7"/>
		<path class="st0" d="M182.5,257.2c-1.5-0.4-3.5-0.9-5-1.3"/>
		<path class="st0" d="M186.4,265.2c-0.4-1.6-0.9-3.8-1.3-5.3"/>
		<path class="st0" d="M181.6,272.6c1.1-1.1,2.6-2.5,3.8-3.6"/>
		<path class="st0" d="M172.3,272c1.5,0.5,3.8,1.1,5.4,1.6"/>
		<line class="st0" x1="164.8" y1="276.9" x2="168.5" y2="273.3"/>
	</g>
	<g>
		<g>
			<g>
				<g>
					<g>
						<path class="st0" d="M147.9,53.2L147.9,53.2L147.9,53.2z"/>
						<path class="st0" d="M147.5,53.2L147.5,53.2L147.5,53.2z"/>
						<path class="st0" d="M151.7,52.3c-2.3,0.7-4.1,0.9-4.1,0.9c-0.5,0-1.5,0-3.9-0.4c-3.7-0.6-8.9,2.9-8.5,9.8
							c0.3,5.3,5.8,13.8,10,13.6c1-0.1,3-1.2,3.8-1.3c0.8,0,3,0.9,3.9,0.8c4.2-0.3,8.6-9.4,8.3-14.7
							C160.8,54.1,155.3,51.2,151.7,52.3z"/>
					</g>
				</g>
			</g>
			<path class="st0" d="M147.9,53.2c0,0,1.3-5.3-2.8-9.1"/>
		</g>
		<path class="st0" d="M147.9,48.6l3-2.6c0,0-0.8-2.1,0.5-4.1c1.8-2.9,7-2.8,7-2.8s0.5,5.2-3.1,6.7c-2.2,1-4.3,0.1-4.3,0.1"/>
	</g>
	<path class="st0" d="M271.5,37.2l-2,2.7c-0.5,0-1-0.2-1.5-0.4s-1.2-0.5-1.6-0.8v-0.2l9.7-12.5c0.6,0.1,1.4,0.4,2,0.6
		c0.5,0.2,1.4,0.5,1.9,0.8l-0.5,15.8c-0.6,0.1-1.5-0.1-2.1-0.3c-1.1-0.4-1.5-0.9-1.4-2.6l0.1-1.5c-0.3-0.1-0.6-0.2-0.8-0.3l-3-1.1
		C272,37.5,271.7,37.3,271.5,37.2z M273.2,34.9c0.3,0.1,0.6,0.2,0.9,0.3l1.5,0.5c0.2,0.1,0.5,0.2,0.8,0.3l0.1-1.4
		c0.1-1.3,0.2-3.2,0.4-4.8h-0.1c-0.6,1.1-1.7,2.6-2.4,3.7L273.2,34.9z"/>
	<path class="st0" d="M59.2,13.4c3.5-1.1,6.2-0.4,7.2,2.7c0.5,1.5-0.1,3.1-1.2,4.1c1.8,0,3.7,1.4,4.3,3.4c1.1,3.5-0.9,5.8-4.7,6.9
		c-1.9,0.6-4,1.2-6.1,1.8l-0.2-0.1l-5.2-16.7l0.1-0.2C55.5,14.7,57.4,14,59.2,13.4z M59.3,20.9l1.8-0.5c1.7-0.5,1.8-1.7,1.5-2.7
		s-1.1-1.8-2.7-1.3c-0.4,0.1-1.2,0.4-1.8,0.5L59.3,20.9z M60.2,23.7l1.5,4.8c0.8-0.3,1.6-0.5,2.1-0.7c2-0.6,2.1-2.1,1.8-3.2
		s-1.3-2.3-3.3-1.6L60.2,23.7z"/>
	<path class="st0" d="M239.1,265.5c-2,0.5-2.3,2.6-1.5,6.1c0.8,3.3,2.4,4.7,4.4,4.2c1.6-0.4,2.7-1.5,3.6-2.6c0.8,0.3,1.9,1.1,2.3,2
		c-1,1.6-3.2,3.4-5.8,4c-4.9,1.2-7.5-2.7-8.5-6.7c-1.4-5.9,1.1-9.2,4.8-10.1c3.6-0.9,6.5,0.7,7.2,3.4c0.4,1.5-0.3,2.3-1.6,2.6
		c-0.6,0.1-1,0.1-1.5,0.1C242.1,266.7,241.1,265,239.1,265.5z"/>
	<g>
		<path class="st0" d="M98.7,287.5"/>
		<path class="st0" d="M91.2,280"/>
		<path class="st0" d="M98.7,272.4"/>
		<path class="st0" d="M98.7,272.4c0,4.2-3.4,7.5-7.5,7.5c4.2,0,7.5,3.4,7.5,7.5c0-4.2,3.4-7.5,7.5-7.5
			C102.1,280,98.7,276.6,98.7,272.4z"/>
		<path class="st0" d="M106.3,280"/>
	</g>
	<g>
		<path class="st0" d="M114.7,75.5"/>
		<path class="st0" d="M108.6,69.5"/>
		<path class="st0" d="M114.7,63.5"/>
		<path class="st0" d="M114.7,63.5c0,3.3-2.7,6-6,6c3.3,0,6,2.7,6,6c0-3.3,2.7-6,6-6C117.4,69.5,114.7,66.8,114.7,63.5z"/>
		<path class="st0" d="M120.7,69.5"/>
	</g>
	<g>
		<path class="st0" d="M273.2,286.6"/>
		<path class="st0" d="M267.2,280.6"/>
		<path class="st0" d="M273.2,274.6"/>
		<circle class="st0" cx="273.2" cy="280.6" r="6"/>
		<path class="st0" d="M279.2,280.6"/>
	</g>
</g>
<g>
	<g>
		<rect x="140.1" y="165.1" class="st3" width="23.8" height="17.1"/>
		<path class="st4" d="M135,182.3h34v-1.1c0-0.6-0.5-1.1-1.1-1.1h-31.8c-0.6,0-1.1,0.5-1.1,1.1L135,182.3L135,182.3z"/>
		<path class="st4" d="M197.8,172.4h-91.5c-1,0-1.8-0.8-1.8-1.8v-57.4c0-1,0.8-1.8,1.8-1.8h91.5c1,0,1.8,0.8,1.8,1.8v57.4
			C199.6,171.6,198.8,172.4,197.8,172.4z"/>
		<path class="st5" d="M106.3,111.4h91.4c1,0,1.9,0.8,1.9,1.9v51.9h-95.2v-51.9C104.4,112.2,105.3,111.4,106.3,111.4z"/>
		<rect x="108.1" y="115" class="st4" width="87.9" height="46.5"/>
		<rect x="111.7" y="118.7" class="st6" width="80.6" height="39.2"/>
		<path class="st3" d="M150,168.6c0,1.1,0.9,2,2,2s2-0.9,2-2s-0.9-2-2-2S150,167.5,150,168.6z"/>
		<rect x="111.7" y="118.6" class="st3" width="3.6" height="39.2"/>
		<rect x="188.7" y="118.7" class="st3" width="3.6" height="39.2"/>
	</g>
	<g>
		<rect x="60" y="136" class="st4" width="7.4" height="32.1"/>
		<rect x="60" y="142.2" class="st3" width="7.4" height="19.8"/>
		<rect x="67.4" y="139" class="st7" width="3.6" height="29.2"/>
		<rect x="71.1" y="133.8" class="st8" width="5.7" height="34.4"/>
		<rect x="76.7" y="136" class="st3" width="7.2" height="32.1"/>
		<rect x="78.6" y="142.9" class="st4" width="3.5" height="18.5"/>
		<rect x="78.6" y="163.2" class="st4" width="3.5" height="1.2"/>
		<rect x="71.1" y="136" class="st4" width="5.7" height="2.9"/>
		<rect x="71.1" y="151" class="st9" width="5.7" height="11"/>
		<rect x="67.4" y="147.3" class="st4" width="3.6" height="3.7"/>
		<rect x="68.5" y="153.8" class="st10" width="1.6" height="8.9"/>
		<rect x="83.9" y="139" class="st7" width="8.1" height="29.2"/>
		<rect x="92" y="136" class="st8" width="3.2" height="32.1"/>
		<rect x="83.9" y="142.9" class="st4" width="8.1" height="2.2"/>
		<rect x="83.9" y="147.3" class="st4" width="8.1" height="2.2"/>
	</g>
	<g>
		<path class="st8" d="M84.1,77.5H68.4c-0.3,0-0.5,0.2-0.5,0.5v11.2c0,0.3,0.2,0.5,0.5,0.5h9.1l3.3,3.3v-3.3h3.3
			c0.3,0,0.5-0.2,0.5-0.5V78C84.6,77.7,84.4,77.5,84.1,77.5z"/>
		<path class="st7" d="M80.7,74.9H60.5c-0.3,0-0.5,0.2-0.5,0.5v11.2c0,0.3,0.2,0.5,0.5,0.5h3.3v3.3l3.3-3.3h13.7
			c0.3,0,0.5-0.2,0.5-0.5V75.4C81.1,75.1,80.9,74.9,80.7,74.9z"/>
		<rect x="61.9" y="77.7" class="st10" width="17.3" height="1.4"/>
		<rect x="61.9" y="80.3" class="st10" width="17.3" height="1.4"/>
		<rect x="61.9" y="82.9" class="st10" width="8.6" height="1.4"/>
	</g>
	<g>
		<g>
			<path class="st11" d="M71.3,119.7c-2.3,0-3.5-4.4-3.5-8.5s1.2-8.5,3.5-8.5s3.5,4.4,3.5,8.5C74.8,115.4,73.6,119.7,71.3,119.7z
				 M71.3,103.7c-1.2,0-2.6,3.1-2.6,7.5s1.4,7.5,2.6,7.5s2.6-3.1,2.6-7.5C73.9,106.8,72.6,103.7,71.3,103.7z"/>
		</g>
		<g>
			<path class="st11" d="M76.3,116.5c-1.8,0-4.3-0.8-6.7-2.2c-3.5-2-6.7-5.3-5.6-7.3c0.3-0.5,0.9-1,2.4-1c1.8,0,4.3,0.8,6.7,2.2
				c3.5,2,6.7,5.3,5.6,7.3C78.4,116,77.8,116.5,76.3,116.5z M66.4,106.9c-0.8,0-1.4,0.2-1.6,0.6c-0.6,1.1,1.4,3.8,5.2,6
				c2.3,1.3,4.6,2.1,6.2,2.1c0.8,0,1.4-0.2,1.6-0.6c0.6-1.1-1.4-3.8-5.2-6C70.4,107.7,68,106.9,66.4,106.9z"/>
		</g>
		<g>
			<path class="st11" d="M66.4,116.5c-1.5,0-2.1-0.6-2.4-1c-1.1-2,2-5.2,5.6-7.3c2.4-1.4,4.9-2.2,6.7-2.2c1.5,0,2.1,0.6,2.4,1
				c1.1,2-2,5.2-5.6,7.3C70.7,115.7,68.2,116.5,66.4,116.5z M76.3,106.9c-1.6,0-4,0.8-6.2,2.1c-3.8,2.2-5.8,4.9-5.2,6
				c0.2,0.4,0.8,0.6,1.6,0.6c1.6,0,4-0.8,6.2-2.1c3.8-2.2,5.8-4.9,5.2-6C77.7,107.1,77.1,106.9,76.3,106.9z"/>
		</g>
		<g>
			<circle class="st11" cx="71.3" cy="111.3" r="0.9"/>
		</g>
		<g>
			<path class="st11" d="M76.7,106.6c0,0.4-0.3,0.7-0.7,0.7s-0.7-0.3-0.7-0.7s0.3-0.7,0.7-0.7S76.7,106.2,76.7,106.6z"/>
		</g>
		<g>
			<path class="st11" d="M74,117.5c0,0.4-0.3,0.7-0.7,0.7c-0.4,0-0.7-0.3-0.7-0.7s0.3-0.7,0.7-0.7S74,117.1,74,117.5z"/>
		</g>
		<g>
			<path class="st11" d="M65.9,110.2c0,0.4-0.3,0.7-0.7,0.7c-0.4,0-0.7-0.3-0.7-0.7s0.3-0.7,0.7-0.7
				C65.6,109.4,65.9,109.8,65.9,110.2z"/>
		</g>
	</g>
	<g>
		<path class="st4" d="M126,80.8h-1.4V77h1.4c0.2,0,0.3,0.1,0.3,0.3v3.3C126.3,80.6,126.2,80.8,126,80.8z"/>
		<path class="st7" d="M126,87.6h-1.4v-3.8h1.4c0.2,0,0.3,0.1,0.3,0.3v3.3C126.3,87.5,126.2,87.6,126,87.6z"/>
		<path class="st4" d="M126,85.2h-1.4v-3.8h1.4c0.2,0,0.3,0.1,0.3,0.3V85C126.3,85.1,126.2,85.2,126,85.2z"/>
		<path class="st9" d="M126,98.5h-1.4v-3.8h1.4c0.2,0,0.3,0.1,0.3,0.3v3.3C126.3,98.4,126.2,98.5,126,98.5z"/>
		<path class="st4" d="M126,92.7h-1.4v-3.8h1.4c0.2,0,0.3,0.1,0.3,0.3v3.3C126.3,92.6,126.2,92.7,126,92.7z"/>
		<path class="st7" d="M124.6,102.3h-18.1V74.9h18.1c0.6,0,1,0.5,1,1v25.3C125.7,101.9,125.2,102.3,124.6,102.3z"/>
		<rect x="109" y="74.9" class="st5" width="1.6" height="27.4"/>
		<rect x="112.2" y="79.2" class="st10" width="8.1" height="1.1"/>
	</g>
	<g>
		<rect x="60" y="227.7" class="st4" width="50.4" height="7.4"/>
		<rect x="60" y="227.7" class="st3" width="50.4" height="2.1"/>
		<g>
			<g>
				<rect x="61.9" y="227.7" class="st11" width="0.5" height="1.2"/>
			</g>
			<g>
				<rect x="63.7" y="227.7" class="st11" width="0.5" height="1.2"/>
			</g>
			<g>
				<rect x="65.5" y="227.7" class="st11" width="0.5" height="1.2"/>
			</g>
			<g>
				<rect x="67.3" y="227.7" class="st11" width="0.5" height="1.2"/>
			</g>
			<g>
				<rect x="69" y="227.7" class="st11" width="0.5" height="1.2"/>
			</g>
			<g>
				<rect x="70.8" y="227.7" class="st11" width="0.5" height="1.2"/>
			</g>
			<g>
				<rect x="72.6" y="227.7" class="st11" width="0.5" height="1.2"/>
			</g>
			<g>
				<rect x="74.3" y="227.7" class="st11" width="0.5" height="1.2"/>
			</g>
			<g>
				<rect x="76.1" y="227.7" class="st11" width="0.5" height="1.2"/>
			</g>
			<g>
				<rect x="77.9" y="227.7" class="st11" width="0.5" height="1.2"/>
			</g>
			<g>
				<rect x="79.7" y="227.7" class="st11" width="0.5" height="1.2"/>
			</g>
			<g>
				<rect x="81.4" y="227.7" class="st11" width="0.5" height="1.2"/>
			</g>
			<g>
				<rect x="83.2" y="227.7" class="st11" width="0.5" height="1.2"/>
			</g>
			<g>
				<rect x="85" y="227.7" class="st11" width="0.5" height="1.2"/>
			</g>
			<g>
				<rect x="86.7" y="227.7" class="st11" width="0.5" height="1.2"/>
			</g>
			<g>
				<rect x="88.5" y="227.7" class="st11" width="0.5" height="1.2"/>
			</g>
			<g>
				<rect x="90.3" y="227.7" class="st11" width="0.5" height="1.2"/>
			</g>
			<g>
				<rect x="92.1" y="227.7" class="st11" width="0.5" height="1.2"/>
			</g>
			<g>
				<rect x="93.8" y="227.7" class="st11" width="0.5" height="1.2"/>
			</g>
			<g>
				<rect x="95.6" y="227.7" class="st11" width="0.5" height="1.2"/>
			</g>
			<g>
				<rect x="97.4" y="227.7" class="st11" width="0.5" height="1.2"/>
			</g>
			<g>
				<rect x="99.1" y="227.7" class="st11" width="0.5" height="1.2"/>
			</g>
			<g>
				<rect x="100.9" y="227.7" class="st11" width="0.5" height="1.2"/>
			</g>
			<g>
				<rect x="102.7" y="227.7" class="st11" width="0.5" height="1.2"/>
			</g>
			<g>
				<rect x="104.4" y="227.7" class="st11" width="0.5" height="1.2"/>
			</g>
			<g>
				<rect x="106.2" y="227.7" class="st11" width="0.5" height="1.2"/>
			</g>
			<g>
				<rect x="108" y="227.7" class="st11" width="0.5" height="1.2"/>
			</g>
		</g>
	</g>
	<g>
		<g>
			<g>
				<g>
					<g>
						<g>
							<g>
								<g>
									<path class="st4" d="M242.4,127.9h-16.8c-0.9,0-1.5,0.7-1.5,1.5v34.1c0,0.9,0.7,1.5,1.5,1.5h16.8c0.9,0,1.5-0.7,1.5-1.5
										v-34.1C244,128.5,243.3,127.9,242.4,127.9z"/>
								</g>
							</g>
							<g>
								<g>
									<rect x="225.9" y="129.9" class="st7" width="16.2" height="29.7"/>
								</g>
							</g>
						</g>
						<g>
							<g>
								<path class="st3" d="M232.4,163.5L232.4,163.5c-0.6,0-1.1-0.5-1.1-1.1c0-0.3,0.1-0.6,0.3-0.8s0.5-0.3,0.8-0.3h3.3
									c0.3,0,0.6,0.1,0.8,0.3s0.3,0.5,0.3,0.8s-0.1,0.6-0.3,0.8s-0.5,0.3-0.8,0.3H232.4z"/>
							</g>
						</g>
						<g>
							<g>
								<g>
									<path class="st3" d="M235.1,129.1h-3c-0.1,0-0.2-0.1-0.2-0.2l0,0c0-0.1,0.1-0.2,0.2-0.2h3c0.1,0,0.2,0.1,0.2,0.2l0,0
										C235.2,129,235.2,129.1,235.1,129.1z"/>
								</g>
							</g>
							<g>
								<g>
									<path class="st3" d="M236.2,128.9c0,0.1-0.1,0.2-0.2,0.2c-0.1,0-0.2-0.1-0.2-0.2s0.1-0.2,0.2-0.2S236.2,128.8,236.2,128.9z
										"/>
								</g>
							</g>
						</g>
					</g>
				</g>
			</g>
		</g>
	</g>
	<g>
		<g>
			<g>
				<path class="st11" d="M73,205.4c-7.2,0-13,5.8-13,13h25.9C85.9,211.2,80.1,205.4,73,205.4z M64.2,214.8c1.4-3.5,4.8-5.9,8.8-5.9
					s7.4,2.5,8.8,5.9H64.2z"/>
			</g>
		</g>
	</g>
	<g>
		<path class="st11" d="M187.2,186.1l20.3,20.3v-20.3H187.2z M203.5,196.8l-6.8-6.8h6.8V196.8z"/>
	</g>
	<path class="st11" d="M91,102.4h-1.8v-4.1H91V102.4z M93.4,99.9h-1.8v2.5h1.8V99.9z M95.9,96.9H94v5.5h1.8L95.9,96.9L95.9,96.9z"/>
	<g>
		
			<rect x="79.7" y="186.5" transform="matrix(0.7071 -0.7071 0.7071 0.7071 -110.2286 112.5316)" class="st3" width="2" height="5.7"/>
		<circle class="st4" cx="74" cy="182.7" r="7.4"/>
		<circle class="st3" cx="74" cy="182.7" r="5.7"/>
		<path class="st8" d="M88.7,197.3L88.7,197.3c-0.6,0.6-1.7,0.6-2.3,0l-6.5-6.5l2.3-2.3l6.5,6.5C89.3,195.6,89.3,196.7,88.7,197.3z"
			/>
	</g>
	<g>
		<path class="st3" d="M236.8,84.7V78h0.3c0.7,0,1.2-0.5,1.2-1.2s-0.5-1.2-1.2-1.2h-6.6c-0.7,0-1.2,0.5-1.2,1.2s0.5,1.2,1.2,1.2h0.3
			v6.8c-4.2,1.3-7.2,5.2-7.2,9.8c0,5.6,4.6,10.2,10.2,10.2s10.2-4.6,10.2-10.3C244,89.9,241,86,236.8,84.7z"/>
		<path class="st4" d="M233.8,102.9c-4.6,0-8.4-3.8-8.4-8.4c0-3.7,2.4-6.9,5.9-8l1.3-0.4V75.6h2.3v10.6l1.3,0.4
			c3.6,1.1,5.9,4.3,5.9,8C242.2,99.1,238.4,102.9,233.8,102.9z"/>
		<path class="st8" d="M226.4,90.6c-0.6,1.2-0.9,2.5-0.9,3.9c0,4.6,3.8,8.4,8.4,8.4c4.6,0,8.4-3.8,8.4-8.4c0-1.4-0.3-2.7-0.9-3.9
			H226.4z"/>
	</g>
	<path class="st11" d="M209.1,87.3c-0.1-0.5-0.6-0.9-1.2-0.9c-0.4,0-0.6,0.2-0.9,0.3l-0.1,0.1c0,0-0.1,0-0.1,0.1
		c0.3-1,0.5-2.1,0.5-3.2c0-0.1-0.1-0.3-0.3-0.3h-9c-0.1,0-0.3,0.1-0.3,0.3c0,1.2,0.2,2.2,0.5,3.2c0,0-0.1,0-0.1-0.1l-0.1-0.1
		c-0.2-0.1-0.5-0.3-0.9-0.3l0,0c-0.5,0-1,0.4-1.1,0.9c-0.1,0.4,0,0.9,0.1,1.2c0.2,0.5,0.4,1,0.7,1.5c0.1,0.2,0.4,0.5,0.7,0.8
		c0.3,0.2,0.6,0.3,0.9,0.3c0.1,0,0.2,0,0.3,0c0.4-0.1,0.7-0.4,1-0.8c0.1-0.1,0.1-0.2,0.2-0.3c0.4,0.5,1,0.9,1.5,1.1
		c0,0.3,0.1,0.6,0.3,0.8l0.2,0.2c0.1,0.1,0.1,0.1,0.1,0.2c0,0.2-0.1,0.3-0.3,0.3h-0.3c-0.1,0-0.2,0.1-0.2,0.1l-0.5,1h-0.3
		c-0.1,0-0.3,0.1-0.3,0.3v1.6h-0.3c-0.1,0-0.2,0.1-0.2,0.2l-0.5,1.2c0,0.1,0,0.2,0,0.3c0,0.1,0.1,0.1,0.2,0.1h6.8
		c0.1,0,0.2,0,0.2-0.1s0.1-0.2,0-0.3l-0.5-1.2c0-0.1-0.1-0.2-0.2-0.2h-0.3V94c0-0.1-0.1-0.3-0.3-0.3h-0.3l-0.5-1
		c0-0.1-0.1-0.1-0.2-0.1h-0.3c-0.2,0-0.3-0.1-0.3-0.3c0-0.1,0-0.2,0.1-0.2l0.2-0.2c0.2-0.2,0.3-0.5,0.3-0.8c0.5-0.2,1-0.6,1.5-1.1
		c0,0.1,0.1,0.2,0.2,0.3c0.2,0.4,0.6,0.7,1,0.8c0.1,0,0.2,0,0.3,0c0.3,0,0.6-0.1,0.9-0.3c0.3-0.2,0.6-0.5,0.7-0.8
		c0.3-0.5,0.5-0.9,0.7-1.5C209.1,88.1,209.2,87.7,209.1,87.3z M203.5,94.7c0,0.1-0.1,0.3-0.3,0.3h-1.4c-0.1,0-0.3-0.1-0.3-0.3
		c0-0.1,0.1-0.3,0.3-0.3h1.4C203.4,94.4,203.5,94.5,203.5,94.7z M206.5,87.8c0.1,0,0.2,0,0.3,0c0.2,0,0.5-0.1,0.8-0.2l0.1-0.1
		c0.1,0,0.2-0.2,0.3-0.2c0,0,0.1,0.1,0.1,0.2c0,0.2,0,0.4-0.1,0.6c-0.1,0.4-0.3,0.8-0.6,1.2c-0.2,0.2-0.3,0.4-0.4,0.5
		c-0.1,0.1-0.2,0.1-0.3,0.1h-0.1c-0.1,0-0.2-0.1-0.3-0.3c-0.1-0.2-0.2-0.4-0.2-0.7c0-0.1-0.1-0.1-0.1-0.2
		C206.2,88.4,206.3,88.1,206.5,87.8z M197.4,87.6l0.1,0.1c0.3,0.2,0.5,0.2,0.7,0.2c0.1,0,0.2,0,0.3,0c0.1,0.3,0.3,0.6,0.5,0.9
		c0,0.1-0.1,0.1-0.1,0.2c-0.1,0.2-0.1,0.5-0.2,0.7c-0.1,0.1-0.2,0.3-0.3,0.3c0,0,0,0-0.1,0s-0.2,0-0.3-0.1s-0.3-0.2-0.4-0.5
		c-0.2-0.4-0.4-0.7-0.6-1.2c-0.1-0.3-0.1-0.4-0.1-0.6c0-0.1,0.1-0.2,0.1-0.2C197.2,87.4,197.4,87.5,197.4,87.6z"/>
	<path class="st11" d="M158.9,199.1l-0.5-0.5l-0.6-0.6l0.1-0.1c0.4-0.4,0.4-1,0-1.4s-1-0.4-1.4,0l-7.2,7.2l-0.6-0.6
		c-0.6-0.6-1.6-0.6-2.1,0l-0.9,0.9c-0.6,0.6-0.6,1.5,0,2.1l2.5,2.5c0.3,0.3,0.7,0.4,1.1,0.4c0.4,0,0.8-0.2,1.1-0.4l0.9-0.9
		c0.6-0.6,0.6-1.5,0-2.1l-0.6-0.6l4.5-4.5l0.6,0.6l0.5,0.5c0.1,0.1,0.1,0.1,0.2,0.1c0.1,0,0.2,0,0.2-0.1c0.1-0.1,0.1-0.3,0-0.4
		l-0.3-0.3l0.7-0.7l0.3,0.3c0.1,0.1,0.1,0.1,0.2,0.1c0.1,0,0.2,0,0.2-0.1c0.1-0.1,0.1-0.3,0-0.4l-0.3-0.3l0.7-0.7l0.3,0.3
		c0.1,0.1,0.1,0.1,0.2,0.1s0.2,0,0.2-0.1C159,199.4,159,199.2,158.9,199.1z M149.3,207.4l-2.2-2.2l0.6-0.6l2.2,2.2L149.3,207.4z"/>
	<g>
		<path class="st11" d="M135.5,225.1c0.1-0.1,0.1-0.2,0-0.3c-0.7-0.7-1.8-0.7-2.5,0s-0.7,1.8,0,2.5c0,0,0.1,0.1,0.2,0.1
			c0.1,0,0.1,0,0.2-0.1L135.5,225.1z"/>
		<path class="st11" d="M143.6,224.8c-0.7-0.7-1.8-0.7-2.5,0c-0.1,0.1-0.1,0.2,0,0.3l2.2,2.2c0,0,0.1,0.1,0.2,0.1
			c0.1,0,0.1,0,0.2-0.1C144.3,226.6,144.3,225.5,143.6,224.8z"/>
		<path class="st11" d="M143.3,229.9c0-2.6-2-4.8-4.6-5v-0.4h0.6c0.3,0,0.5-0.2,0.5-0.5s-0.2-0.5-0.5-0.5h-2c-0.3,0-0.5,0.2-0.5,0.5
			s0.2,0.5,0.5,0.5h0.6v0.4c-2.6,0.2-4.6,2.4-4.6,5c0,1.4,0.6,2.7,1.5,3.6l-0.5,0.9c-0.1,0.1-0.1,0.2,0,0.3c0,0.1,0.1,0.2,0.2,0.3
			c0.1,0,0.1,0.1,0.2,0.1c0.2,0,0.3-0.1,0.4-0.2l0.4-0.8c0.8,0.5,1.8,0.8,2.8,0.8s2-0.3,2.8-0.8l0.4,0.8c0.1,0.1,0.2,0.2,0.4,0.2
			c0.1,0,0.2,0,0.2-0.1c0.1-0.1,0.2-0.2,0.2-0.3s0-0.2,0-0.3l-0.5-0.9C142.7,232.6,143.3,231.3,143.3,229.9z M138.6,230.2
			c-0.1,0.1-0.2,0.1-0.3,0.1s-0.2,0-0.3-0.1l-1.4-1.4c-0.1-0.1-0.1-0.2-0.1-0.3s0-0.2,0.1-0.3s0.2-0.1,0.3-0.1s0.2,0,0.3,0.1
			l1.1,1.1l1.9-1.9c0.1-0.1,0.2-0.1,0.3-0.1s0.2,0,0.3,0.1c0.2,0.2,0.2,0.5,0,0.6L138.6,230.2z"/>
	</g>
	<g>
		<g>
			<polygon class="st4" points="128.6,218.3 106,218.3 106,185.5 123.2,185.5 128.6,191 			"/>
			<polygon class="st3" points="123.2,185.5 123.2,191 128.6,191 			"/>
		</g>
		<g>
			<g>
				<path class="st7" d="M121.1,207.7l-1.2-3h-5.1l-1.2,3c-0.1,0.3-0.3,0.4-0.5,0.5c-0.1,0-0.2,0.1-0.4,0.1c-0.1,0-0.3,0-0.4-0.1
					c-0.4-0.2-0.6-0.5-0.6-0.8c0-0.2,0-0.3,0.1-0.5l4.7-10.8c0.2-0.4,0.5-0.6,0.9-0.6s0.7,0.2,0.9,0.6l4.6,10.8
					c0.1,0.1,0.1,0.3,0.1,0.5c0,0.4-0.2,0.7-0.5,0.8c-0.1,0.1-0.3,0.1-0.4,0.1s-0.2,0-0.3-0.1C121.4,208.2,121.2,208,121.1,207.7z
					 M119,202.8l-1.7-4.1l-1.7,4.1H119z"/>
			</g>
		</g>
	</g>
	<g>
		<g>
			<polygon class="st4" points="242.7,218.3 220,218.3 220,185.5 237.2,185.5 242.7,191 			"/>
			<polygon class="st3" points="237.2,185.5 237.2,191 242.7,191 			"/>
		</g>
		<g>
			<g>
				<g>
					<rect x="227.9" y="188.8" class="st8" width="6.9" height="0.8"/>
				</g>
				<rect x="222.8" y="192.5" class="st3" width="4.5" height="0.8"/>
				<rect x="222.8" y="194.4" class="st3" width="17.2" height="0.8"/>
				<rect x="222.8" y="211" class="st3" width="17.2" height="0.8"/>
				<rect x="222.8" y="212.8" class="st3" width="17.2" height="0.8"/>
				<rect x="235.6" y="214.7" class="st3" width="4.3" height="0.8"/>
				<rect x="222.8" y="196.3" class="st3" width="17.2" height="0.8"/>
				<rect x="222.8" y="198.1" class="st3" width="17.2" height="0.8"/>
				<rect x="222.8" y="205.4" class="st3" width="17.2" height="0.8"/>
				<rect x="222.8" y="207.4" class="st3" width="17.2" height="0.8"/>
				<rect x="222.8" y="209.1" class="st3" width="17.2" height="0.8"/>
				<rect x="222.8" y="199.9" class="st3" width="17.2" height="0.8"/>
				<g>
					<rect x="222.8" y="203.6" class="st8" width="8.5" height="0.8"/>
				</g>
			</g>
		</g>
	</g>
	<g>
		<rect x="170.1" y="221.2" class="st3" width="23.1" height="13.8"/>
		<rect x="197.4" y="221.9" class="st8" width="1" height="8.1"/>
		<path class="st8" d="M199,232.9h-2.1v-3c0-0.6,0.5-1.1,1.1-1.1l0,0c0.6,0,1.1,0.5,1.1,1.1v3H199z"/>
		<polygon class="st4" points="181.6,208.3 157,219.2 181.6,230.1 206.2,219.2 		"/>
	</g>
	<g>
		<polyline class="st4" points="145.5,102.1 181.6,102.1 181.6,78.3 145.5,78.3 		"/>
		<rect x="145.5" y="74.9" class="st5" width="30.9" height="3.4"/>
		<polyline class="st7" points="145.5,74.9 181.6,74.9 181.6,78.3 145.5,78.3 		"/>
		<rect x="158.2" y="76.1" class="st10" width="10.7" height="1.1"/>
		<g>
			<rect x="148.5" y="81.3" class="st3" width="4" height="3.8"/>
			<rect x="153.7" y="81.3" class="st3" width="4" height="3.8"/>
			<rect x="159" y="81.3" class="st3" width="4" height="3.8"/>
			<rect x="164.2" y="81.3" class="st3" width="4" height="3.8"/>
			<rect x="169.4" y="81.3" class="st3" width="4" height="3.8"/>
		</g>
		<g>
			<rect x="148.5" y="86" class="st3" width="4" height="3.8"/>
			<rect x="153.7" y="86" class="st3" width="4" height="3.8"/>
			<rect x="159" y="86" class="st3" width="4" height="3.8"/>
			<rect x="164.2" y="86" class="st3" width="4" height="3.8"/>
			<rect x="169.4" y="86" class="st3" width="4" height="3.8"/>
		</g>
		<g>
			<rect x="148.5" y="90.6" class="st8" width="4" height="3.8"/>
			<rect x="153.7" y="90.6" class="st8" width="4" height="3.8"/>
			<rect x="159" y="90.6" class="st3" width="4" height="3.8"/>
			<rect x="164.2" y="90.6" class="st3" width="4" height="3.8"/>
			<rect x="169.4" y="90.6" class="st3" width="4" height="3.8"/>
		</g>
		<g>
			<rect x="148.5" y="95.3" class="st3" width="4" height="3.8"/>
			<rect x="153.7" y="95.3" class="st3" width="4" height="3.8"/>
			<rect x="159" y="95.3" class="st3" width="4" height="3.8"/>
			<rect x="164.2" y="95.3" class="st3" width="4" height="3.8"/>
			<rect x="169.4" y="95.3" class="st3" width="4" height="3.8"/>
		</g>
		<circle class="st3" cx="171.4" cy="83.2" r="0.6"/>
		<path class="st3" d="M172,87.9c0,0.3-0.3,0.6-0.6,0.6s-0.6-0.3-0.6-0.6c0-0.3,0.3-0.6,0.6-0.6S172,87.5,172,87.9z"/>
		<path class="st3" d="M172,92.5c0,0.3-0.3,0.6-0.6,0.6s-0.6-0.3-0.6-0.6s0.3-0.6,0.6-0.6S172,92.2,172,92.5z"/>
		<path class="st3" d="M172,97.2c0,0.3-0.3,0.6-0.6,0.6s-0.6-0.3-0.6-0.6c0-0.3,0.3-0.6,0.6-0.6S172,96.8,172,97.2z"/>
		<rect x="174.6" y="81.3" class="st3" width="4" height="3.8"/>
		<rect x="174.6" y="86" class="st3" width="4" height="3.8"/>
		<rect x="174.6" y="90.6" class="st3" width="4" height="3.8"/>
		<rect x="174.6" y="95.3" class="st3" width="4" height="3.8"/>
		<circle class="st8" cx="176.6" cy="83.2" r="0.6"/>
		<path class="st8" d="M177.2,87.9c0,0.3-0.3,0.6-0.6,0.6s-0.6-0.3-0.6-0.6c0-0.3,0.3-0.6,0.6-0.6S177.2,87.5,177.2,87.9z"/>
		<path class="st8" d="M177.2,92.5c0,0.3-0.3,0.6-0.6,0.6s-0.6-0.3-0.6-0.6s0.3-0.6,0.6-0.6S177.2,92.2,177.2,92.5z"/>
		<path class="st3" d="M177.2,97.2c0,0.3-0.3,0.6-0.6,0.6s-0.6-0.3-0.6-0.6c0-0.3,0.3-0.6,0.6-0.6S177.2,96.8,177.2,97.2z"/>
		<path class="st3" d="M166.7,83.2c0,0.3-0.3,0.6-0.6,0.6s-0.6-0.3-0.6-0.6c0-0.3,0.3-0.6,0.6-0.6S166.7,82.9,166.7,83.2z"/>
		<path class="st3" d="M166.7,87.9c0,0.3-0.3,0.6-0.6,0.6s-0.6-0.3-0.6-0.6c0-0.3,0.3-0.6,0.6-0.6S166.7,87.5,166.7,87.9z"/>
		<path class="st3" d="M166.7,92.5c0,0.3-0.3,0.6-0.6,0.6s-0.6-0.3-0.6-0.6s0.3-0.6,0.6-0.6S166.7,92.2,166.7,92.5z"/>
		<path class="st3" d="M166.7,97.2c0,0.3-0.3,0.6-0.6,0.6s-0.6-0.3-0.6-0.6c0-0.3,0.3-0.6,0.6-0.6S166.7,96.8,166.7,97.2z"/>
		<path class="st3" d="M161.5,83.2c0,0.3-0.3,0.6-0.6,0.6s-0.6-0.3-0.6-0.6c0-0.3,0.3-0.6,0.6-0.6S161.5,82.9,161.5,83.2z"/>
		<path class="st3" d="M161.5,87.9c0,0.3-0.3,0.6-0.6,0.6s-0.6-0.3-0.6-0.6c0-0.3,0.3-0.6,0.6-0.6S161.5,87.5,161.5,87.9z"/>
		<path class="st3" d="M161.5,92.5c0,0.3-0.3,0.6-0.6,0.6s-0.6-0.3-0.6-0.6s0.3-0.6,0.6-0.6S161.5,92.2,161.5,92.5z"/>
		<path class="st3" d="M161.5,97.2c0,0.3-0.3,0.6-0.6,0.6s-0.6-0.3-0.6-0.6c0-0.3,0.3-0.6,0.6-0.6S161.5,96.8,161.5,97.2z"/>
		<path class="st3" d="M156.3,83.2c0,0.3-0.3,0.6-0.6,0.6s-0.6-0.3-0.6-0.6c0-0.3,0.3-0.6,0.6-0.6S156.3,82.9,156.3,83.2z"/>
		<path class="st3" d="M156.3,87.9c0,0.3-0.3,0.6-0.6,0.6s-0.6-0.3-0.6-0.6c0-0.3,0.3-0.6,0.6-0.6S156.3,87.5,156.3,87.9z"/>
		<path class="st3" d="M156.3,92.5c0,0.3-0.3,0.6-0.6,0.6s-0.6-0.3-0.6-0.6s0.3-0.6,0.6-0.6S156.3,92.2,156.3,92.5z"/>
		<path class="st3" d="M156.3,97.2c0,0.3-0.3,0.6-0.6,0.6s-0.6-0.3-0.6-0.6c0-0.3,0.3-0.6,0.6-0.6S156.3,96.8,156.3,97.2z"/>
		<path class="st3" d="M151.1,83.2c0,0.3-0.3,0.6-0.6,0.6s-0.6-0.3-0.6-0.6c0-0.3,0.3-0.6,0.6-0.6S151.1,82.9,151.1,83.2z"/>
		<path class="st3" d="M151.1,87.9c0,0.3-0.3,0.6-0.6,0.6s-0.6-0.3-0.6-0.6c0-0.3,0.3-0.6,0.6-0.6S151.1,87.5,151.1,87.9z"/>
		<path class="st3" d="M151.1,92.5c0,0.3-0.3,0.6-0.6,0.6s-0.6-0.3-0.6-0.6s0.3-0.6,0.6-0.6S151.1,92.2,151.1,92.5z"/>
		<path class="st3" d="M151.1,97.2c0,0.3-0.3,0.6-0.6,0.6s-0.6-0.3-0.6-0.6c0-0.3,0.3-0.6,0.6-0.6S151.1,96.8,151.1,97.2z"/>
		<rect x="176" y="76.4" class="st10" width="4.1" height="0.6"/>
		<rect x="147" y="76.4" class="st10" width="4.1" height="0.6"/>
	</g>
	<g>
		<path class="st11" d="M99.1,121.2h-6.6c-0.3,0-0.5-0.2-0.5-0.5v-14.3c0-0.3,0.2-0.5,0.5-0.5s0.5,0.2,0.5,0.5v13.8h6.2
			c0.3,0,0.5,0.2,0.5,0.5C99.6,121,99.4,121.2,99.1,121.2z"/>
	</g>
	<g>
		<path class="st11" d="M71.3,129.8c-0.3,0-0.5-0.2-0.5-0.5v-7.7c0-0.3,0.2-0.5,0.5-0.5s0.5,0.2,0.5,0.5v7.7
			C71.8,129.6,71.6,129.8,71.3,129.8z"/>
	</g>
	<g>
		<path class="st11" d="M71.3,100.7c-0.3,0-0.5-0.2-0.5-0.5v-7.7c0-0.3,0.2-0.5,0.5-0.5s0.5,0.2,0.5,0.5v7.7
			C71.8,100.5,71.6,100.7,71.3,100.7z"/>
	</g>
	<g>
		<path class="st11" d="M103.1,203.2h-5.8c-0.3,0-0.5-0.2-0.5-0.5v-20.4h-11c-0.3,0-0.5-0.2-0.5-0.5s0.2-0.5,0.5-0.5h11.4
			c0.3,0,0.5,0.2,0.5,0.5v20.4h5.3c0.3,0,0.5,0.2,0.5,0.5C103.6,203,103.4,203.2,103.1,203.2z"/>
	</g>
	<g>
		<path class="st11" d="M73.9,202.4c-0.3,0-0.5-0.2-0.5-0.5v-7.6c0-0.3,0.2-0.5,0.5-0.5s0.5,0.2,0.5,0.5v7.6
			C74.4,202.2,74.1,202.4,73.9,202.4z"/>
	</g>
	<g>
		<path class="st11" d="M152.1,195.2c-0.3,0-0.5-0.2-0.5-0.5v-8.4c0-0.3,0.2-0.5,0.5-0.5s0.5,0.2,0.5,0.5v8.4
			C152.6,195,152.4,195.2,152.1,195.2z"/>
	</g>
	<g>
		<path class="st11" d="M181.6,205.9c-0.3,0-0.5-0.2-0.5-0.5V204h-19.3c-0.3,0-0.5-0.2-0.5-0.5s0.2-0.5,0.5-0.5h19.8
			c0.3,0,0.5,0.2,0.5,0.5v1.8C182.1,205.7,181.9,205.9,181.6,205.9z"/>
	</g>
	<g>
		<path class="st11" d="M216.9,196.7h-6.2c-0.3,0-0.5-0.2-0.5-0.5s0.2-0.5,0.5-0.5h6.2c0.3,0,0.5,0.2,0.5,0.5
			C217.4,196.4,217.1,196.7,216.9,196.7z"/>
	</g>
	<g>
		<path class="st11" d="M220,144.4h-15.7c-0.3,0-0.5-0.2-0.5-0.5s0.2-0.5,0.5-0.5H220c0.3,0,0.5,0.2,0.5,0.5S220.3,144.4,220,144.4z
			"/>
	</g>
	<g>
		<path class="st11" d="M234.1,125c-0.3,0-0.5-0.2-0.5-0.5v-17.3c0-0.3,0.2-0.5,0.5-0.5s0.5,0.2,0.5,0.5v17.3
			C234.5,124.8,234.3,125,234.1,125z"/>
	</g>
	<g>
		<path class="st11" d="M233.8,116.4h-16.9c-0.3,0-0.5-0.2-0.5-0.5V92.4h-5.7c-0.3,0-0.5-0.2-0.5-0.5s0.2-0.5,0.5-0.5h6.2
			c0.3,0,0.5,0.2,0.5,0.5v23.5h16.4c0.3,0,0.5,0.2,0.5,0.5C234.3,116.2,234.1,116.4,233.8,116.4z"/>
	</g>
	<g>
		<path class="st11" d="M142.5,88.1h-13.3c-0.3,0-0.5-0.2-0.5-0.5s0.2-0.5,0.5-0.5h13.3c0.3,0,0.5,0.2,0.5,0.5
			S142.8,88.1,142.5,88.1z"/>
	</g>
	<g>
		<path class="st11" d="M163.5,109.9c-0.3,0-0.5-0.2-0.5-0.5v-4.7c0-0.3,0.2-0.5,0.5-0.5s0.5,0.2,0.5,0.5v4.7
			C164,109.7,163.8,109.9,163.5,109.9z"/>
	</g>
	<g>
		<path class="st11" d="M129.3,231.8h-14c-0.3,0-0.5-0.2-0.5-0.5s0.2-0.5,0.5-0.5h14c0.3,0,0.5,0.2,0.5,0.5
			C129.7,231.6,129.5,231.8,129.3,231.8z"/>
	</g>
	<g>
		<path class="st11" d="M231.4,229.8h-25.2c-0.3,0-0.5-0.2-0.5-0.5s0.2-0.5,0.5-0.5h24.7v-6.7c0-0.3,0.2-0.5,0.5-0.5
			s0.5,0.2,0.5,0.5v7.1C231.8,229.6,231.6,229.8,231.4,229.8z"/>
	</g>
	<g>
		<g>
			<g>
				<g>
					<path class="st3" d="M65.2,198.9c-0.3,0-0.5-0.2-0.5-0.5v-2.1c0-0.3,0.2-0.5,0.5-0.5c0.3,0,0.5,0.2,0.5,0.5v2.1
						C65.7,198.7,65.5,198.9,65.2,198.9z"/>
				</g>
				<g>
					<path class="st3" d="M65.2,198.9c-0.3,0-0.5-0.2-0.5-0.5v-2.1c0-0.3,0.2-0.5,0.5-0.5c0.3,0,0.5,0.2,0.5,0.5v2.1
						C65.7,198.7,65.5,198.9,65.2,198.9z"/>
				</g>
				<g>
					<path class="st3" d="M66.2,197.9h-2.1c-0.3,0-0.5-0.2-0.5-0.5s0.2-0.5,0.5-0.5h2.1c0.3,0,0.5,0.2,0.5,0.5
						S66.5,197.9,66.2,197.9z"/>
				</g>
			</g>
			<g>
				<g>
					<path class="st3" d="M139.8,194.5c-0.3,0-0.5-0.2-0.5-0.5v-2c0-0.3,0.2-0.5,0.5-0.5s0.5,0.2,0.5,0.5v2.1
						C140.3,194.3,140.1,194.5,139.8,194.5z"/>
				</g>
				<g>
					<path class="st3" d="M139.8,194.5c-0.3,0-0.5-0.2-0.5-0.5v-2c0-0.3,0.2-0.5,0.5-0.5s0.5,0.2,0.5,0.5v2.1
						C140.3,194.3,140.1,194.5,139.8,194.5z"/>
				</g>
				<g>
					<path class="st3" d="M140.9,193.5h-2.1c-0.3,0-0.5-0.2-0.5-0.5s0.2-0.5,0.5-0.5h2.1c0.3,0,0.5,0.2,0.5,0.5
						C141.3,193.3,141.1,193.5,140.9,193.5z"/>
				</g>
			</g>
			<g>
				<g>
					<path class="st3" d="M95.6,176.7c-0.3,0-0.5-0.2-0.5-0.5v-2.1c0-0.3,0.2-0.5,0.5-0.5s0.5,0.2,0.5,0.5v2.1
						C96.1,176.5,95.9,176.7,95.6,176.7z"/>
				</g>
				<g>
					<path class="st3" d="M95.6,176.7c-0.3,0-0.5-0.2-0.5-0.5v-2.1c0-0.3,0.2-0.5,0.5-0.5s0.5,0.2,0.5,0.5v2.1
						C96.1,176.5,95.9,176.7,95.6,176.7z"/>
				</g>
				<g>
					<path class="st3" d="M96.6,175.7h-2.1c-0.3,0-0.5-0.2-0.5-0.5s0.2-0.5,0.5-0.5h2.1c0.3,0,0.5,0.2,0.5,0.5
						S96.9,175.7,96.6,175.7z"/>
				</g>
			</g>
			<g>
				<g>
					<path class="st3" d="M96.1,85.8c-0.3,0-0.5-0.2-0.5-0.5v-2.1c0-0.3,0.2-0.5,0.5-0.5s0.5,0.2,0.5,0.5v2.1
						C96.5,85.6,96.3,85.8,96.1,85.8z"/>
				</g>
				<g>
					<path class="st3" d="M96.1,85.8c-0.3,0-0.5-0.2-0.5-0.5v-2.1c0-0.3,0.2-0.5,0.5-0.5s0.5,0.2,0.5,0.5v2.1
						C96.5,85.6,96.3,85.8,96.1,85.8z"/>
				</g>
				<g>
					<path class="st3" d="M97.1,84.7H95c-0.3,0-0.5-0.2-0.5-0.5s0.2-0.5,0.5-0.5h2.1c0.3,0,0.5,0.2,0.5,0.5
						C97.5,84.5,97.3,84.7,97.1,84.7z"/>
				</g>
			</g>
			<g>
				<g>
					<path class="st3" d="M220.8,81.8c-0.3,0-0.5-0.2-0.5-0.5v-2.1c0-0.3,0.2-0.5,0.5-0.5s0.5,0.2,0.5,0.5v2.1
						C221.3,81.6,221.1,81.8,220.8,81.8z"/>
				</g>
				<g>
					<path class="st3" d="M220.8,81.8c-0.3,0-0.5-0.2-0.5-0.5v-2.1c0-0.3,0.2-0.5,0.5-0.5s0.5,0.2,0.5,0.5v2.1
						C221.3,81.6,221.1,81.8,220.8,81.8z"/>
				</g>
				<g>
					<path class="st3" d="M221.8,80.8h-2.1c-0.3,0-0.5-0.2-0.5-0.5s0.2-0.5,0.5-0.5h2.1c0.3,0,0.5,0.2,0.5,0.5
						C222.3,80.6,222.1,80.8,221.8,80.8z"/>
				</g>
			</g>
			<g>
				<g>
					<path class="st3" d="M222.3,106.2c-0.3,0-0.5-0.2-0.5-0.5v-2.1c0-0.3,0.2-0.5,0.5-0.5s0.5,0.2,0.5,0.5v2.1
						C222.7,106,222.5,106.2,222.3,106.2z"/>
				</g>
				<g>
					<path class="st3" d="M222.3,106.2c-0.3,0-0.5-0.2-0.5-0.5v-2.1c0-0.3,0.2-0.5,0.5-0.5s0.5,0.2,0.5,0.5v2.1
						C222.7,106,222.5,106.2,222.3,106.2z"/>
				</g>
				<g>
					<path class="st3" d="M223.3,105.2h-2.1c-0.3,0-0.5-0.2-0.5-0.5s0.2-0.5,0.5-0.5h2.1c0.3,0,0.5,0.2,0.5,0.5
						S223.6,105.2,223.3,105.2z"/>
				</g>
			</g>
			<g>
				<g>
					<path class="st3" d="M224.8,208.9c-0.3,0-0.5-0.2-0.5-0.5v-2.1c0-0.3,0.2-0.5,0.5-0.5s0.5,0.2,0.5,0.5v2.1
						C225.2,208.7,225,208.9,224.8,208.9z"/>
				</g>
				<g>
					<path class="st3" d="M224.8,208.9c-0.3,0-0.5-0.2-0.5-0.5v-2.1c0-0.3,0.2-0.5,0.5-0.5s0.5,0.2,0.5,0.5v2.1
						C225.2,208.7,225,208.9,224.8,208.9z"/>
				</g>
				<g>
					<path class="st3" d="M225.8,207.8h-2.1c-0.3,0-0.5-0.2-0.5-0.5s0.2-0.5,0.5-0.5h2.1c0.3,0,0.5,0.2,0.5,0.5
						S226.1,207.8,225.8,207.8z"/>
				</g>
			</g>
			<g>
				<g>
					<path class="st3" d="M144.8,216.7c-0.3,0-0.5-0.2-0.5-0.5v-2.1c0-0.3,0.2-0.5,0.5-0.5s0.5,0.2,0.5,0.5v2.1
						C145.2,216.5,145,216.7,144.8,216.7z"/>
				</g>
				<g>
					<path class="st3" d="M144.8,216.7c-0.3,0-0.5-0.2-0.5-0.5v-2.1c0-0.3,0.2-0.5,0.5-0.5s0.5,0.2,0.5,0.5v2.1
						C145.2,216.5,145,216.7,144.8,216.7z"/>
				</g>
				<g>
					<path class="st3" d="M145.8,215.7h-2.1c-0.3,0-0.5-0.2-0.5-0.5s0.2-0.5,0.5-0.5h2.1c0.3,0,0.5,0.2,0.5,0.5
						S146.1,215.7,145.8,215.7z"/>
				</g>
			</g>
			<g>
				<g>
					<path class="st3" d="M63.7,99.7c-0.3,0-0.5-0.2-0.5-0.5v-2.1c0-0.3,0.2-0.5,0.5-0.5s0.5,0.2,0.5,0.5v2.1
						C64.2,99.5,64,99.7,63.7,99.7z"/>
				</g>
				<g>
					<path class="st3" d="M63.7,99.7c-0.3,0-0.5-0.2-0.5-0.5v-2.1c0-0.3,0.2-0.5,0.5-0.5s0.5,0.2,0.5,0.5v2.1
						C64.2,99.5,64,99.7,63.7,99.7z"/>
				</g>
				<g>
					<path class="st3" d="M64.8,98.7h-2.1c-0.3,0-0.5-0.2-0.5-0.5s0.2-0.5,0.5-0.5h2.1c0.3,0,0.5,0.2,0.5,0.5
						C65.2,98.5,65,98.7,64.8,98.7z"/>
				</g>
			</g>
		</g>
		<g>
			<g>
				<g>
					<path class="st3" d="M212.2,161.2c-0.9,0-1.6-0.7-1.6-1.6c0-0.9,0.7-1.6,1.6-1.6c0.9,0,1.6,0.7,1.6,1.6S213,161.2,212.2,161.2z
						 M212.2,158.9c-0.4,0-0.7,0.3-0.7,0.7s0.3,0.7,0.7,0.7s0.7-0.3,0.7-0.7C212.8,159.2,212.5,158.9,212.2,158.9z"/>
				</g>
			</g>
			<g>
				<g>
					<path class="st3" d="M212.2,135.6c-0.9,0-1.6-0.7-1.6-1.6c0-0.9,0.7-1.6,1.6-1.6c0.9,0,1.6,0.7,1.6,1.6
						C213.8,134.9,213,135.6,212.2,135.6z M212.2,133.3c-0.4,0-0.7,0.3-0.7,0.7s0.3,0.7,0.7,0.7s0.7-0.3,0.7-0.7
						C212.8,133.6,212.5,133.3,212.2,133.3z"/>
				</g>
			</g>
			<g>
				<g>
					<path class="st3" d="M135.5,81.4c-0.9,0-1.6-0.7-1.6-1.6s0.7-1.6,1.6-1.6c0.9,0,1.6,0.7,1.6,1.6
						C137.1,80.7,136.4,81.4,135.5,81.4z M135.5,79.2c-0.4,0-0.7,0.3-0.7,0.7c0,0.4,0.3,0.7,0.7,0.7s0.7-0.3,0.7-0.7
						S135.9,79.2,135.5,79.2z"/>
				</g>
			</g>
			<g>
				<g>
					<path class="st3" d="M237.8,232c-0.9,0-1.6-0.7-1.6-1.6s0.7-1.6,1.6-1.6c0.9,0,1.6,0.7,1.6,1.6S238.7,232,237.8,232z
						 M237.8,229.8c-0.4,0-0.7,0.3-0.7,0.7s0.3,0.7,0.7,0.7s0.7-0.3,0.7-0.7S238.2,229.8,237.8,229.8z"/>
				</g>
			</g>
			<g>
				<g>
					<path class="st3" d="M222.3,110.9c-0.9,0-1.6-0.7-1.6-1.6s0.7-1.6,1.6-1.6c0.9,0,1.6,0.7,1.6,1.6
						C223.9,110.2,223.1,110.9,222.3,110.9z M222.3,108.6c-0.4,0-0.7,0.3-0.7,0.7c0,0.4,0.3,0.7,0.7,0.7s0.7-0.3,0.7-0.7
						C222.9,108.9,222.6,108.6,222.3,108.6z"/>
				</g>
			</g>
			<g>
				<g>
					<path class="st3" d="M190.1,98.1c-1.1,0.2-2.1-0.8-1.9-1.9c0.1-0.6,0.6-1.1,1.2-1.2c1.1-0.2,2.1,0.8,1.9,1.9
						C191.3,97.5,190.8,98,190.1,98.1z M189.8,95.9c-0.4,0-0.7,0.3-0.7,0.7s0.3,0.7,0.7,0.7s0.7-0.3,0.7-0.7S190.2,95.9,189.8,95.9z
						"/>
				</g>
			</g>
			<g>
				<g>
					<path class="st3" d="M96.1,80.5c-0.1,0-0.3,0-0.4,0c-0.6-0.1-1-0.6-1.2-1.2c-0.1-0.5,0-1,0.3-1.4c0.4-0.5,1-0.7,1.6-0.6
						s1,0.6,1.2,1.2c0.1,0.5,0,1-0.3,1.4C97.1,80.2,96.6,80.5,96.1,80.5z M96.1,78.2c-0.2,0-0.4,0.1-0.5,0.3
						c-0.1,0.2-0.2,0.4-0.1,0.6s0.2,0.4,0.5,0.5s0.5,0,0.7-0.2c0.1-0.2,0.2-0.4,0.1-0.6s-0.2-0.4-0.5-0.5
						C96.3,78.2,96.2,78.2,96.1,78.2z"/>
				</g>
			</g>
			<g>
				<g>
					<path class="st3" d="M81.9,127.3c-0.1,0-0.3,0-0.4,0c-0.6-0.1-1-0.6-1.2-1.2c-0.1-0.5,0-1,0.3-1.4c0.4-0.5,1-0.7,1.6-0.6
						s1,0.6,1.2,1.2c0.1,0.5,0,1-0.3,1.4C82.8,127.1,82.4,127.3,81.9,127.3z M81.9,125c-0.2,0-0.4,0.1-0.5,0.3
						c-0.1,0.2-0.2,0.4-0.1,0.6s0.2,0.4,0.5,0.5s0.5,0,0.7-0.2c0.1-0.2,0.2-0.4,0.1-0.6s-0.2-0.4-0.5-0.5C82,125,81.9,125,81.9,125z
						"/>
				</g>
			</g>
			<g>
				<g>
					<path class="st3" d="M116.1,180.5c-0.9,0-1.6-0.7-1.6-1.6c0-0.9,0.7-1.6,1.6-1.6s1.6,0.7,1.6,1.6
						C117.7,179.7,117,180.5,116.1,180.5z M116.1,178.2c-0.4,0-0.7,0.3-0.7,0.7s0.3,0.7,0.7,0.7c0.4,0,0.7-0.3,0.7-0.7
						C116.8,178.5,116.4,178.2,116.1,178.2z"/>
				</g>
			</g>
			<g>
				<g>
					<path class="st3" d="M140.4,216.6c-0.9,0-1.6-0.7-1.6-1.6c0-0.9,0.7-1.6,1.6-1.6c0.9,0,1.6,0.7,1.6,1.6
						C142,215.9,141.3,216.6,140.4,216.6z M140.4,214.3c-0.4,0-0.7,0.3-0.7,0.7s0.3,0.7,0.7,0.7s0.7-0.3,0.7-0.7
						C141.1,214.6,140.8,214.3,140.4,214.3z"/>
				</g>
			</g>
		</g>
	</g>
	<g>
		<path class="st11" d="M199.6,183.1c-0.3,0-0.5-0.2-0.5-0.5v-3.3h-17.5c-0.3,0-0.5-0.2-0.5-0.5v-3.6c0-0.3,0.2-0.5,0.5-0.5
			s0.5,0.2,0.5,0.5v3.2h17.5c0.3,0,0.5,0.2,0.5,0.5v3.8C200,182.9,199.8,183.1,199.6,183.1z"/>
	</g>
	<g>
		<path class="st11" d="M231.9,183.1c-0.3,0-0.5-0.2-0.5-0.5v-6.5h-14.6c-0.3,0-0.5-0.2-0.5-0.5V144c0-0.3,0.2-0.5,0.5-0.5
			s0.5,0.2,0.5,0.5v31.3h14.6c0.3,0,0.5,0.2,0.5,0.5v7C232.4,182.9,232.2,183.1,231.9,183.1z"/>
	</g>
	<g>
		<path class="st11" d="M97.4,224.1c-0.3,0-0.5-0.2-0.5-0.5v-20.8c0-0.3,0.2-0.5,0.5-0.5s0.5,0.2,0.5,0.5v20.8
			C97.8,223.8,97.6,224.1,97.4,224.1z"/>
	</g>
	<g>
		<path class="st11" d="M92.5,111.7H80.3c-0.3,0-0.5-0.2-0.5-0.5s0.2-0.5,0.5-0.5h12.2c0.3,0,0.5,0.2,0.5,0.5S92.8,111.7,92.5,111.7
			z"/>
	</g>
	<g>
		<path class="st11" d="M202.5,107.5h-39c-0.3,0-0.5-0.2-0.5-0.5s0.2-0.5,0.5-0.5H202v-8.1c0-0.3,0.2-0.5,0.5-0.5s0.5,0.2,0.5,0.5
			v8.6C203,107.3,202.8,107.5,202.5,107.5z"/>
	</g>
</g>
</svg>
